
<svg width="487px" height="243px" viewBox="0 0 487 243" version="1.1" xmlns="http://www.w3.org/2000/svg" xmlns:xlink="http://www.w3.org/1999/xlink">
    <defs>
        <polygon id="path-1" points="0 243 487 243 487 0 0 0"></polygon>
    </defs>
    <g id="Page-1" stroke="none" stroke-width="1" fill="none" fill-rule="evenodd">
        <g id="PactFlow-Homepage-Option-A-v2.0" transform="translate(-718.000000, -3715.000000)">
            <g id="Group-148" transform="translate(718.000000, 3715.000000)">
                <path d="M241,91.9990035 C241,93.105132 240.105132,94 239.000997,94 C237.894868,94 237,93.105132 237,91.9990035 C237,90.894868 237.894868,90 239.000997,90 C240.105132,90 241,90.894868 241,91.9990035" id="Fill-1" fill="#A7A9AC"></path>
                <path d="M413,191 L413,83.6437758 C413,80.5271757 410.437871,78 407.278166,78 L322.721834,78 C319.562129,78 317,80.5286755 317,83.6437758 L317,191 L413,191 Z" id="Fill-3" fill="#FFFFFF"></path>
                <path d="M317,93 L317,82.867234 C317,80.179106 319.1531,78 321.811024,78 L408.188976,78 C410.8469,78 413,80.179106 413,82.867234 L413,93 L317,93 Z" id="Fill-5" fill="#00D4FF"></path>
                <path d="M318.317638,191 L316,191 L316,80.9667771 C316,77.67697 318.713182,75 322.047491,75 L335,75 L335,77.2867056 L322.047491,77.2867056 C319.990973,77.2867056 318.317638,78.937707 318.317638,80.9667771 L318.317638,191 Z" id="Fill-7" fill="#414042"></path>
                <path d="M412,191 L409.715681,191 L409.715681,80.9667771 C409.715681,78.937707 408.066402,77.2867056 406.03945,77.2867056 L349,77.2867056 L349,75 L406.03945,75 C409.325824,75 412,77.67697 412,80.9667771 L412,191 Z" id="Fill-9" fill="#414042"></path>
                <mask id="mask-2" fill="white">
                    <use xlink:href="#path-1"></use>
                </mask>
                <g id="Clip-12"></g>
                <polygon id="Fill-11" fill="#414042" mask="url(#mask-2)" points="339 79 345 79 345 77 339 77"></polygon>
                <polygon id="Fill-13" fill="#414042" mask="url(#mask-2)" points="317 93 413 93 413 91 317 91"></polygon>
                <polygon id="Fill-14" fill="#414042" mask="url(#mask-2)" points="327 87 331 87 331 85 327 85"></polygon>
                <polygon id="Fill-15" fill="#414042" mask="url(#mask-2)" points="336 87 340 87 340 85 336 85"></polygon>
                <polygon id="Fill-16" fill="#414042" mask="url(#mask-2)" points="345 87 349 87 349 85 345 85"></polygon>
                <polygon id="Fill-17" fill="#2DCBB1" mask="url(#mask-2)" points="328 123 401 123 401 101 328 101"></polygon>
                <polygon id="Fill-18" fill="#00D4FF" mask="url(#mask-2)" points="328 186 347 186 347 130 328 130"></polygon>
                <polygon id="Fill-19" fill="#BCBEC0" mask="url(#mask-2)" points="355 144 374 144 374 129 355 129"></polygon>
                <polygon id="Fill-20" fill="#F1F2F2" mask="url(#mask-2)" points="355 165 374 165 374 150 355 150"></polygon>
                <polygon id="Fill-21" fill="#E6E7E8" mask="url(#mask-2)" points="382 144 401 144 401 129 382 129"></polygon>
                <polygon id="Fill-22" fill="#D1D3D4" mask="url(#mask-2)" points="382 165 401 165 401 150 382 150"></polygon>
                <path d="M238.507675,65.3409854 C234.722664,65.3409854 231.658534,62.2801418 231.658534,58.4923479 C231.658534,54.7152669 234.722664,51.660545 238.507675,51.660545 C242.285034,51.660545 245.346103,54.7152669 245.346103,58.4923479 C245.346103,62.2801418 242.285034,65.3409854 238.507675,65.3409854 M256.854191,55.1284808 L253.522217,55.114707 C253.125809,53.3822695 252.443191,51.7600224 251.52487,50.3076521 L253.884954,47.9462113 C254.73134,47.1060097 254.735931,45.7378126 253.892607,44.897611 L252.12484,43.1299739 C251.286107,42.2897723 249.91934,42.285181 249.077546,43.1238522 L246.71287,45.4837626 C245.260393,44.5655095 243.641088,43.8829414 241.914645,43.4911534 L241.914645,40.1563643 C241.914645,38.9672266 240.945817,38 239.750469,38 L237.258759,38 C236.063412,38 235.097645,38.9672266 235.097645,40.1563643 L235.097645,43.4911534 C233.39416,43.8752893 231.803935,44.5471445 230.365232,45.4378499 L228.018923,43.0702874 C227.18019,42.227025 225.811893,42.2101904 224.967038,43.0565136 L223.191618,44.8119074 C222.349824,45.6444569 222.340641,47.0141844 223.176313,47.8589772 L225.522622,50.2326614 C224.598179,51.67891 223.907908,53.3011571 223.508439,55.0290034 L220.174935,55.0152296 C218.982648,55.0045166 218.015351,55.9717432 218.015351,57.168533 L218.000045,59.6631206 C217.992393,60.8491975 218.955099,61.8194849 220.147385,61.8301978 L223.474767,61.8409108 C223.866584,63.5779395 224.540019,65.1940649 225.458339,66.6464352 L223.086011,69.0078761 C222.245748,69.841956 222.239626,71.2070922 223.081419,72.0534155 L224.832351,73.8210526 C225.678736,74.675028 227.047034,74.675028 227.887297,73.8348264 L230.253503,71.4871594 C231.709042,72.4069429 233.320694,73.100224 235.060912,73.4981336 L235.047137,76.8252706 C235.042546,78.0159388 236.005252,78.989287 237.197538,78.989287 L239.692309,79 C240.884595,79 241.853423,78.041956 241.853423,76.8543486 L241.862607,73.5180291 C243.596702,73.1277716 245.219069,72.443673 246.676137,71.5300112 L249.030099,73.9006346 C249.868832,74.7408361 251.23866,74.7408361 252.089637,73.9006346 L253.848221,72.1391191 C254.694607,71.3035088 254.699198,69.9322508 253.849752,69.0951101 L251.508034,66.729078 C252.427885,65.270586 253.115095,63.6575215 253.508443,61.9204927 L256.840416,61.9296753 C258.031172,61.9296753 258.995408,60.9670399 259,59.7763718 L259,57.2741321 C259,56.0911161 258.041885,55.1284808 256.854191,55.1284808" id="Fill-23" fill="#00D4FF" mask="url(#mask-2)"></path>
                <path d="M300.478478,233 L113.521522,233 C112.684685,233 112,232.318174 112,231.484832 L112,98.5151684 C112,97.6818258 112.684685,97 113.521522,97 L300.478478,97 C301.316837,97 302,97.6818258 302,98.5151684 L302,231.484832 C302,232.318174 301.316837,233 300.478478,233" id="Fill-25" fill="#6D6E71" mask="url(#mask-2)"></path>
                <path d="M111.295933,227 L109,227 L109,101.840079 C109,98.6198484 111.646446,96 114.897487,96 L188,96 L188,98.2741739 L114.897487,98.2741739 C112.91074,98.2741739 111.295933,99.8736763 111.295933,101.840079 L111.295933,227 Z" id="Fill-26" fill="#414042" mask="url(#mask-2)"></path>
                <path d="M296.214473,234 L296.214473,231.731706 C298.162002,231.731706 299.747654,230.134827 299.747654,228.173508 L299.747654,101.826492 C299.747654,99.8651735 298.162002,98.2682943 296.214473,98.2682943 L266,98.2682943 L266,96 L296.214473,96 C299.403796,96 302,98.6145872 302,101.826492 L302,228.173508 C302,231.385413 299.403796,234 296.214473,234" id="Fill-27" fill="#414042" mask="url(#mask-2)"></path>
                <polygon id="Fill-28" fill="#FFFFFF" mask="url(#mask-2)" points="121 218 291 218 291 108 121 108"></polygon>
                <path d="M297.597004,240 L111.334825,240 C106.863481,240 103.049239,236.709308 102.326427,232.224401 L101,224 L187.329329,224 L190.631644,228.820344 L214.485942,228.820344 L218.055682,224 L309,224 L307.846253,231.152868 C307.024112,236.255848 302.684189,240 297.597004,240" id="Fill-29" fill="#FFFFFF" mask="url(#mask-2)"></path>
                <path d="M103.678438,226.287554 L104.778916,233.034313 C105.409494,236.90333 108.695772,239.712446 112.592921,239.712446 L297.352074,239.712446 C301.863127,239.712446 305.667813,236.461069 306.395402,231.982038 L307.324594,226.287554 L219.019517,226.287554 L215.478583,231.019741 L190.655664,231.019741 L187.378481,226.287554 L103.678438,226.287554 Z M297.352074,242 L112.592921,242 C107.575587,242 103.344959,238.385665 102.534001,233.403372 L101,224 L188.565361,224 L191.842544,228.732187 L214.344756,228.732187 L217.88569,224 L310,224 L308.640318,232.352622 C307.729315,237.943404 302.981796,242 297.352074,242 L297.352074,242 Z" id="Fill-30" fill="#414042" mask="url(#mask-2)"></path>
                <path d="M238.507638,51.8472252 C235.385401,51.8472252 232.845353,54.3794981 232.845353,57.4939201 C232.845353,60.615942 235.385401,63.1542948 238.507638,63.1542948 C241.623795,63.1542948 244.159283,60.615942 244.159283,57.4939201 C244.159283,54.3794981 241.623795,51.8472252 238.507638,51.8472252 L238.507638,51.8472252 Z M238.507638,65.4342524 C234.128298,65.4342524 230.565238,61.8729586 230.565238,57.4939201 C230.565238,53.1240014 234.128298,49.5672676 238.507638,49.5672676 C242.880898,49.5672676 246.439397,53.1240014 246.439397,57.4939201 C246.439397,61.8729586 242.880898,65.4342524 238.507638,65.4342524 L238.507638,65.4342524 Z M230.153297,68.949947 L230.920936,69.434818 C232.298125,70.3088017 233.78628,70.9304701 235.338278,71.2846235 L236.227523,71.4882998 L236.210802,75.7047013 C236.209282,75.9737363 236.314168,76.2275716 236.504177,76.417568 C236.692667,76.6060445 236.941959,76.7094026 237.206452,76.7094026 L239.688737,76.7200424 C240.239005,76.7200424 240.690468,76.2762107 240.690468,75.7305408 L240.702628,71.5034995 L241.588833,71.3043832 C243.152992,70.9517497 244.641147,70.3376812 246.013776,69.4773772 L246.785975,68.9925062 L249.766845,71.9944503 C250.155984,72.3835631 250.797457,72.3805232 251.195717,71.9868505 L252.937724,70.2434429 C253.132294,70.0519265 253.235659,69.8011311 253.235659,69.5320961 C253.235659,69.2676211 253.132294,69.0213856 252.945325,68.8374691 L249.972055,65.832485 L250.453919,65.0664192 C251.323403,63.6878049 251.942074,62.2012725 252.293212,60.6463415 L252.495382,59.7541181 L256.716635,59.7677978 C257.266902,59.7677978 257.718365,59.3178862 257.719885,58.7646165 L257.719885,56.2855426 C257.719885,55.7383528 257.276023,55.2930011 256.728795,55.2930011 L252.509063,55.2762814 L252.306893,54.3931778 C251.948155,52.8184871 251.331004,51.3304348 250.47216,49.9731 L249.985736,49.2024744 L252.974206,46.21269 C253.167256,46.0211736 253.272141,45.7688583 253.272141,45.4998233 C253.272141,45.2338282 253.170296,44.9860728 252.981807,44.7991163 L251.226118,43.042029 C250.832418,42.6529162 250.198547,42.6453164 249.812447,43.0374691 L246.817896,46.0272534 L246.047218,45.5393425 C244.694349,44.6805585 243.210755,44.06497 241.637476,43.7077766 L240.751271,43.5056204 L240.751271,39.2816189 C240.751271,38.7298692 240.298288,38.2799576 239.74194,38.2799576 L237.267256,38.2799576 C236.712428,38.2799576 236.260965,38.7298692 236.260965,39.2816189 L236.260965,43.5086603 L235.37172,43.7077766 C233.854684,44.0482503 232.39237,44.6501591 231.019741,45.4967833 L230.247542,45.9740544 L227.280353,42.9781902 C227.090343,42.7881937 226.83497,42.6817957 226.564397,42.6817957 L226.562877,42.6817957 C226.299903,42.6817957 226.052131,42.7836338 225.868202,42.9690703 L224.098833,44.7170378 C223.910343,44.9024744 223.805458,45.1532697 223.803938,45.4207847 C223.802418,45.6898197 223.905783,45.942135 224.091232,46.1290916 L227.061462,49.1386356 L226.570477,49.9047013 C225.705553,51.2589961 225.083842,52.7424885 224.722064,54.3095794 L224.516854,55.1957229 L220.297121,55.1790032 L220.288001,55.1790032 C220.021987,55.1790032 219.777255,55.2808413 219.591806,55.4632379 C219.401796,55.6532344 219.295391,55.9070696 219.295391,56.1791446 L219.28019,58.6627784 C219.27715,59.2130081 219.727093,59.6644397 220.283441,59.6689996 L224.489492,59.6811594 L224.688622,60.5673029 C225.04584,62.1511135 225.658431,63.6361258 226.509674,64.9813008 L226.999139,65.7519265 L223.995467,68.7462708 C223.806978,68.9332273 223.703613,69.1809827 223.703613,69.4469777 C223.702093,69.7144928 223.805458,69.9668081 223.995467,70.1568045 L225.737475,71.9138918 C225.927485,72.1069282 226.181337,72.2133263 226.448871,72.2133263 L226.450391,72.2133263 C226.716404,72.2133263 226.965697,72.1114882 227.152666,71.9245316 L230.153297,68.949947 Z M239.684177,79 L237.201892,78.9893602 C236.329368,78.9893602 235.507007,78.6488865 234.888336,78.0272181 C234.268145,77.4025097 233.927647,76.5771651 233.930688,75.6955815 L233.941328,73.2788264 C232.745028,72.9307529 231.58825,72.4474019 230.486194,71.8287734 L228.762427,73.5387416 C228.148316,74.1543302 227.325955,74.4932838 226.450391,74.4932838 L226.444311,74.4932838 C225.564186,74.4917639 224.737265,74.1467303 224.117074,73.5205019 L222.376586,71.7649346 C221.757915,71.1417462 221.420458,70.3148816 221.423498,69.4378579 C221.426538,68.5638742 221.768555,67.7430894 222.388747,67.1305408 L224.114033,65.4099328 C223.510563,64.3216331 223.033259,63.1649346 222.691242,61.9550371 L220.26976,61.9489572 C218.451748,61.9322375 216.987915,60.4517851 217.000075,58.6490986 L217.015276,56.1715447 C217.015276,55.294521 217.360333,54.4661364 217.986605,53.844468 C218.609836,53.2273595 219.448919,52.9583245 220.310802,52.8990456 L222.730764,52.9096854 C223.081901,51.7073878 223.565286,50.5537292 224.177877,49.4639095 L222.470831,47.7341817 C221.85672,47.1140332 221.519263,46.2886886 221.523823,45.4101449 C221.528383,44.5331212 221.873441,43.7108165 222.493632,43.096748 L224.258441,41.3533404 C224.867991,40.7407918 225.688833,40.4018381 226.562877,40.4018381 L226.564397,40.4018381 C227.446041,40.4018381 228.276003,40.7453517 228.899234,41.3715801 L230.61084,43.0982679 C231.693135,42.5069989 232.821032,42.0418876 233.98085,41.7105338 L233.98085,39.2816189 C233.98085,37.4728526 235.455324,36 237.267256,36 L239.74194,36 C241.555391,36 243.031386,37.4728526 243.031386,39.2816189 L243.031386,41.7120537 C244.235286,42.0570873 245.389024,42.5358784 246.477399,43.1423471 L248.199646,41.4247791 C249.47955,40.1480028 251.559015,40.1510428 252.838919,41.429339 L254.593088,43.1864263 C255.211759,43.8020148 255.553776,44.6258395 255.552256,45.5028632 C255.552256,46.3814069 255.207199,47.2067515 254.582447,47.8269 L252.867801,49.542948 C253.477352,50.6373277 253.956176,51.7955461 254.304273,53.0024037 L256.733356,53.0130435 C258.534646,53.0160834 260,54.4813362 260,56.2855426 L260,58.7691764 C259.9924,60.5779427 258.519445,62.0477554 256.715115,62.0477554 L254.289072,62.0401555 C253.945535,63.2378932 253.463671,64.3961117 252.84956,65.4965712 L254.556606,67.2232591 C255.170717,67.8282078 255.514254,68.6505125 255.515774,69.5290562 C255.517294,70.4121598 255.172237,71.2390244 254.545965,71.8591729 L252.802438,73.6025804 C251.511893,74.8793567 249.427868,74.8793567 248.151003,73.6025804 L246.434837,71.8758925 C245.335822,72.4823613 244.177523,72.9611524 242.976663,73.301626 L242.970583,75.7335808 C242.970583,77.5332273 241.496108,79 239.684177,79 L239.684177,79 Z" id="Fill-31" fill="#414042" mask="url(#mask-2)"></path>
                <path d="M204.009898,172.344464 C198.842962,172.344464 194.658108,168.164385 194.658108,162.990134 C194.658108,157.829543 198.842962,153.657054 204.009898,153.657054 C209.170763,153.657054 213.351064,157.829543 213.351064,162.990134 C213.351064,168.164385 209.170763,172.344464 204.009898,172.344464 M229.07045,158.39569 L224.518264,158.377477 C223.977891,156.008158 223.0459,153.795175 221.792113,151.809866 L225.014618,148.586014 C226.169741,147.437024 226.175812,145.570104 225.023725,144.422632 L222.61178,142.009297 C221.462729,140.861824 219.598746,140.852717 218.448176,142.00019 L215.2196,145.224041 C213.235703,143.967286 211.021085,143.036861 208.662266,142.501071 L208.662266,137.94609 C208.662266,136.320504 207.338656,135 205.70843,135 L202.305295,135 C200.675069,135 199.356013,136.320504 199.356013,137.94609 L199.356013,142.501071 C197.027552,143.024719 194.855435,143.943 192.889753,145.160293 L189.685463,141.925817 C188.539447,140.77379 186.670911,140.752541 185.517306,141.907603 L183.093217,144.302724 C181.942648,145.44109 181.928987,147.31408 183.071967,148.467624 L186.273221,151.708172 C185.011845,153.685892 184.069228,155.898875 183.525819,158.259087 L178.973633,158.239355 C177.343407,158.225695 176.022832,159.547716 176.022832,161.18241 L176.000064,164.589917 C175.989439,166.21095 177.303941,167.536008 178.932649,167.549668 L183.478764,167.563328 C184.013065,169.9372 184.934432,172.145629 186.188218,174.126386 L182.947499,177.354791 C181.798447,178.494674 181.792376,180.35704 182.939909,181.51362 L185.33364,183.926955 C186.488763,185.092641 188.355781,185.092641 189.503315,183.945169 L192.736445,180.738013 C194.723378,181.994769 196.92737,182.941889 199.302886,183.486787 L199.284671,188.031142 C199.2786,189.656729 200.59462,190.98634 202.220293,190.98634 L205.629499,191 C207.258207,191 208.581817,189.693156 208.581817,188.070606 L208.595478,183.51259 C210.961887,182.981352 213.178023,182.046375 215.169509,180.798726 L218.382907,184.036238 C219.528922,185.183711 221.400495,185.183711 222.561689,184.036238 L224.964527,181.63201 C226.11965,180.487573 226.125722,178.6161 224.967563,177.474698 L221.767827,174.240222 C223.023131,172.250359 223.962712,170.044965 224.500049,167.672611 L229.050718,167.686272 C230.677908,167.686272 231.993928,166.368803 232,164.744735 L232,161.32812 C232,159.711641 230.690051,158.39569 229.07045,158.39569" id="Fill-32" fill="#2DCBB1" mask="url(#mask-2)"></path>
                <path d="M241.273538,171 L238,170.45545 C238.285237,169.321122 238.514763,168.159656 238.679666,167 L242,167.311171 C241.823955,168.55043 241.581058,169.789688 241.273538,171" id="Fill-33" fill="#414042" mask="url(#mask-2)"></path>
                <path d="M171.296558,160.351605 L169,160.226626 C169.122729,158.130254 169.435686,156.036858 169.932737,154 L172.172533,154.514794 C171.706165,156.422209 171.411616,158.387651 171.296558,160.351605 L171.296558,160.351605 Z M170.521834,172.664998 C169.895918,170.665337 169.451027,168.59277 169.1979,166.509789 L171.480651,166.247929 C171.718437,168.19998 172.138783,170.141616 172.726346,172.017786 L170.521834,172.664998 Z M237.075992,181.109999 L235.12154,179.930139 C236.190813,178.265242 237.112811,176.494708 237.864523,174.669124 L240,175.494877 C239.20073,177.442464 238.215834,179.332026 237.075992,181.109999 L237.075992,181.109999 Z M176.392861,183.825314 C175.08887,182.154465 173.930619,180.361614 172.947257,178.497346 L174.996824,177.484124 C175.918822,179.230852 177.00497,180.910628 178.229187,182.477327 L176.392861,183.825314 Z M228.442039,190.432827 L227.024524,188.674196 C228.623063,187.461603 230.118818,186.107666 231.470366,184.648091 L233.180895,186.13891 C231.740369,187.693707 230.146432,189.139891 228.442039,190.432827 L228.442039,190.432827 Z M185.869039,192.341731 C184.054191,191.209482 182.329855,189.912082 180.745122,188.486728 L182.309911,186.851588 C183.796461,188.187671 185.413409,189.403239 187.116268,190.464072 L185.869039,192.341731 Z M217.031352,196.297907 L216.330265,194.173266 C218.250967,193.576641 220.13485,192.805938 221.928221,191.883475 L223.006698,193.857843 C221.092133,194.841308 219.082453,195.66111 217.031352,196.297907 L217.031352,196.297907 Z M197.798254,197.159368 C195.687323,196.708552 193.607074,196.070267 191.611201,195.263856 L192.497915,193.203192 C194.366457,193.959017 196.317841,194.55713 198.296839,194.979677 L197.798254,197.159368 Z M205.772542,198 C205.255548,198 204.740088,197.989585 204.227696,197.967267 L204.324345,195.738478 C206.335559,195.815846 208.402001,195.728063 210.399408,195.470666 L210.704695,197.681601 C209.083144,197.891387 207.423241,198 205.772542,198 L205.772542,198 Z" id="Fill-34" fill="#414042" mask="url(#mask-2)"></path>
                <path d="M173.976268,149 L172,148.202226 C172.290543,147.592632 172.602661,146.988338 172.932039,146.397297 L174.006472,144 L176,144.758017 L175.149946,146.658362 L175.207479,146.687517 L174.857965,147.293135 C174.545847,147.851047 174.250989,148.42221 173.976268,149" id="Fill-35" fill="#414042" mask="url(#mask-2)"></path>
                <path d="M210.738838,61.3399945 L208.63962,60.4759305 L210.900782,55 L213,55.8640641 L210.738838,61.3399945 Z M206.221054,72.2903449 L204.121836,71.4262808 L206.379971,65.951861 L208.480703,66.815925 L206.221054,72.2903449 Z M201.69873,83.2422058 L199.601026,82.3781418 L201.860674,76.9022113 L203.959892,77.7662754 L201.69873,83.2422058 Z M197.179433,94.1940668 L195.080215,93.3300027 L197.339864,87.8540723 L199.439082,88.7181363 L197.179433,94.1940668 Z M192.660136,105.145928 L190.560918,104.281864 L192.820567,98.8059332 L194.919785,99.6699973 L192.660136,105.145928 Z M188.139326,116.096278 L186.041621,115.232214 L188.30127,109.757794 L190.400488,110.621858 L188.139326,116.096278 Z M183.620029,127.048139 L181.519297,126.185586 L183.780459,120.709655 L185.878164,121.572209 L183.620029,127.048139 Z M179.099218,138 L177,137.137447 L179.261162,131.661516 L181.358867,132.52407 L179.099218,138 Z" id="Fill-36" fill="#414042" mask="url(#mask-2)"></path>
                <path d="M214.831023,50 L213,49.2031687 L213.654785,47.5186393 L213.624422,47.5018639 L214.017822,46.5792171 C214.39802,45.695713 214.831023,44.8275862 215.30495,44 L217,45.0862069 C216.578878,45.8187325 216.194719,46.5862069 215.855446,47.3648649 L214.831023,50 Z" id="Fill-37" fill="#414042" mask="url(#mask-2)"></path>
                <path d="M231.357578,33.4456569 L230.644715,31.2812919 C232.641636,30.6125275 234.721447,30.1823903 236.828386,30 L237.019789,32.2722793 C235.092196,32.4379505 233.185702,32.8331295 231.357578,33.4456569 L231.357578,33.4456569 Z M248.470808,33.783079 C246.674333,33.1310337 244.775375,32.6704981 242.826682,32.4166716 L243.116047,30.1550318 C245.227508,30.4316571 247.287727,30.9301906 249.23642,31.6399929 L248.470808,33.783079 Z M221.606579,39.5663718 L220,37.9643769 C221.484503,36.4490174 223.143831,35.1099685 224.929756,33.9882681 L226.124894,35.9246453 C224.488172,36.9521107 222.969006,38.1756457 221.606579,39.5663718 L221.606579,39.5663718 Z M258.040954,40.145461 C256.762925,38.7273764 255.287465,37.4597637 253.655265,36.380621 L254.894109,34.4746423 C256.68757,35.6586594 258.30922,37.0509054 259.715353,38.6133824 L258.040954,40.145461 Z M263.237468,50.3684379 C262.830548,48.4548596 262.182491,46.6157573 261.314396,44.9043282 L263.327895,43.8647034 C264.286416,45.755483 264.999279,47.7815354 265.448398,49.8896634 L263.237468,50.3684379 Z M264.708407,62.4183578 L262.500491,61.9319836 L263.792084,55.9587009 L266,56.4450751 L264.708407,62.4183578 Z M262.125221,74.366443 L259.917306,73.8800689 L261.210406,67.9052663 L263.416814,68.3916404 L262.125221,74.366443 Z M259.542035,86.3130084 L257.33412,85.8281541 L258.625713,79.8533515 L260.833628,80.3412456 L259.542035,86.3130084 Z M256.958849,98.2610936 L254.750934,97.7747195 L256.042527,91.8014368 L258.250442,92.286291 L256.958849,98.2610936 Z M254.374156,110.209179 L252.167748,109.722805 L253.459341,103.749522 L255.667256,104.235896 L254.374156,110.209179 Z M251.792478,122.157264 L249.584562,121.67089 L250.876155,115.696087 L253.084071,116.183981 L251.792478,122.157264 Z M249.209292,134.105349 L247.001376,133.617455 L248.292969,127.645693 L250.500885,128.132067 L249.209292,134.105349 Z M246.626106,146.053435 L244.41819,145.56706 L245.708276,139.593778 L247.916192,140.078632 L246.626106,146.053435 Z M244.04292,158 L241.835004,157.513626 L243.126597,151.540343 L245.333006,152.028237 L244.04292,158 Z" id="Fill-38" fill="#414042" mask="url(#mask-2)"></path>
                <polygon id="Fill-39" fill="#414042" mask="url(#mask-2)" points="241.098889 168 238 167.436868 238.901111 164 242 164.561373"></polygon>
                <path d="M388.507638,37.8472252 C385.385401,37.8472252 382.845353,40.3794981 382.845353,43.4939201 C382.845353,46.615942 385.385401,49.1542948 388.507638,49.1542948 C391.623795,49.1542948 394.159283,46.615942 394.159283,43.4939201 C394.159283,40.3794981 391.623795,37.8472252 388.507638,37.8472252 L388.507638,37.8472252 Z M388.507638,51.4342524 C384.128298,51.4342524 380.565238,47.8729586 380.565238,43.4939201 C380.565238,39.1240014 384.128298,35.5672676 388.507638,35.5672676 C392.880898,35.5672676 396.439397,39.1240014 396.439397,43.4939201 C396.439397,47.8729586 392.880898,51.4342524 388.507638,51.4342524 L388.507638,51.4342524 Z M380.153297,54.949947 L380.920936,55.434818 C382.298125,56.3088017 383.78628,56.9304701 385.338278,57.2846235 L386.227523,57.4882998 L386.210802,61.7047013 C386.209282,61.9737363 386.314168,62.2275716 386.504177,62.417568 C386.692667,62.6060445 386.941959,62.7094026 387.206452,62.7094026 L389.688737,62.7200424 C390.239005,62.7200424 390.690468,62.2762107 390.690468,61.7305408 L390.702628,57.5034995 L391.588833,57.3043832 C393.152992,56.9517497 394.641147,56.3376812 396.013776,55.4773772 L396.785975,54.9925062 L399.766845,57.9944503 C400.155984,58.3835631 400.797457,58.3805232 401.195717,57.9868505 L402.937724,56.2434429 C403.132294,56.0519265 403.235659,55.8011311 403.235659,55.5320961 C403.235659,55.2676211 403.132294,55.0213856 402.945325,54.8374691 L399.972055,51.832485 L400.453919,51.0664192 C401.323403,49.6878049 401.942074,48.2012725 402.293212,46.6463415 L402.495382,45.7541181 L406.716635,45.7677978 C407.266902,45.7677978 407.718365,45.3178862 407.719885,44.7646165 L407.719885,42.2855426 C407.719885,41.7383528 407.276023,41.2930011 406.728795,41.2930011 L402.509063,41.2762814 L402.306893,40.3931778 C401.948155,38.8184871 401.331004,37.3304348 400.47216,35.9731 L399.985736,35.2024744 L402.974206,32.21269 C403.167256,32.0211736 403.272141,31.7688583 403.272141,31.4998233 C403.272141,31.2338282 403.168776,30.9860728 402.981807,30.7991163 L401.226118,29.042029 C400.832418,28.6529162 400.198547,28.6453164 399.812447,29.0374691 L396.817896,32.0272534 L396.047218,31.5393425 C394.694349,30.6805585 393.210755,30.06497 391.637476,29.7077766 L390.751271,29.5056204 L390.751271,25.2816189 C390.751271,24.7298692 390.298288,24.2799576 389.74194,24.2799576 L387.267256,24.2799576 C386.712428,24.2799576 386.260965,24.7298692 386.260965,25.2816189 L386.260965,29.5086603 L385.37172,29.7077766 C383.854684,30.0482503 382.39237,30.6501591 381.019741,31.4967833 L380.247542,31.9740544 L377.280353,28.9781902 C377.090343,28.7881937 376.83497,28.6817957 376.564397,28.6817957 L376.562877,28.6817957 C376.299903,28.6817957 376.052131,28.7836338 375.868202,28.9690703 L374.098833,30.7170378 C373.910343,30.9024744 373.805458,31.1532697 373.803938,31.4207847 C373.802418,31.6898197 373.905783,31.942135 374.091232,32.1290916 L377.061462,35.1386356 L376.570477,35.9047013 C375.705553,37.2589961 375.083842,38.7424885 374.722064,40.3095794 L374.516854,41.1957229 L370.297121,41.1790032 L370.288001,41.1790032 C370.021987,41.1790032 369.777255,41.2808413 369.591806,41.4632379 C369.401796,41.6532344 369.295391,41.9070696 369.295391,42.1791446 L369.28019,44.6627784 C369.27715,45.2130081 369.727093,45.6644397 370.283441,45.6689996 L374.489492,45.6811594 L374.688622,46.5673029 C375.04584,48.1511135 375.658431,49.6361258 376.509674,50.9813008 L376.999139,51.7519265 L373.995467,54.7462708 C373.806978,54.9332273 373.703613,55.1809827 373.703613,55.4469777 C373.702093,55.7144928 373.805458,55.9668081 373.995467,56.1568045 L375.737475,57.9138918 C375.927485,58.1069282 376.181337,58.2133263 376.448871,58.2133263 L376.450391,58.2133263 C376.716404,58.2133263 376.965697,58.1114882 377.152666,57.9245316 L380.153297,54.949947 Z M389.684177,65 L387.201892,64.9893602 C386.329368,64.9893602 385.507007,64.6488865 384.888336,64.0272181 C384.268145,63.4025097 383.927647,62.5771651 383.930688,61.6955815 L383.941328,59.2788264 C382.745028,58.9307529 381.58825,58.4474019 380.486194,57.8287734 L378.762427,59.5387416 C378.148316,60.1543302 377.325955,60.4932838 376.450391,60.4932838 L376.444311,60.4932838 C375.564186,60.4917639 374.737265,60.1467303 374.117074,59.5205019 L372.376586,57.7649346 C371.757915,57.1417462 371.420458,56.3148816 371.423498,55.4378579 C371.426538,54.5638742 371.768555,53.7430894 372.388747,53.1305408 L374.114033,51.4099328 C373.510563,50.3216331 373.033259,49.1649346 372.691242,47.9550371 L370.26976,47.9489572 C368.451748,47.9322375 366.987915,46.4517851 367.000075,44.6490986 L367.015276,42.1715447 C367.015276,41.294521 367.360333,40.4661364 367.986605,39.844468 C368.609836,39.2273595 369.448919,38.9583245 370.310802,38.8990456 L372.730764,38.9096854 C373.081901,37.7073878 373.565286,36.5537292 374.177877,35.4639095 L372.470831,33.7341817 C371.85672,33.1140332 371.519263,32.2886886 371.523823,31.4101449 C371.528383,30.5331212 371.873441,29.7108165 372.493632,29.096748 L374.258441,27.3533404 C374.867991,26.7407918 375.688833,26.4018381 376.562877,26.4018381 L376.564397,26.4018381 C377.446041,26.4018381 378.276003,26.7453517 378.899234,27.3715801 L380.61084,29.0982679 C381.693135,28.5069989 382.821032,28.0418876 383.98085,27.7105338 L383.98085,25.2816189 C383.98085,23.4728526 385.455324,22 387.267256,22 L389.74194,22 C391.555391,22 393.031386,23.4728526 393.031386,25.2816189 L393.031386,27.7120537 C394.235286,28.0570873 395.389024,28.5358784 396.477399,29.1423471 L398.199646,27.4247791 C399.47955,26.1480028 401.559015,26.1510428 402.838919,27.429339 L404.593088,29.1864263 C405.211759,29.8020148 405.553776,30.6258395 405.552256,31.5028632 C405.552256,32.3814069 405.207199,33.2067515 404.582447,33.8269 L402.867801,35.542948 C403.477352,36.6373277 403.956176,37.7955461 404.304273,39.0024037 L406.733356,39.0130435 C408.534646,39.0160834 410,40.4813362 410,42.2855426 L410,44.7691764 C409.9924,46.5779427 408.519445,48.0477554 406.715115,48.0477554 L404.289072,48.0401555 C403.945535,49.2378932 403.463671,50.3961117 402.84956,51.4965712 L404.556606,53.2232591 C405.170717,53.8282078 405.514254,54.6505125 405.515774,55.5290562 C405.517294,56.4121598 405.172237,57.2390244 404.545965,57.8591729 L402.802438,59.6025804 C401.511893,60.8793567 399.427868,60.8793567 398.151003,59.6025804 L396.434837,57.8758925 C395.335822,58.4823613 394.177523,58.9611524 392.976663,59.301626 L392.970583,61.7335808 C392.970583,63.5332273 391.496108,65 389.684177,65 L389.684177,65 Z" id="Fill-40" fill="#414042" mask="url(#mask-2)"></path>
                <path d="M28.0098983,95.3459818 C22.842962,95.3459818 18.6581079,91.1643854 18.6581079,85.991652 C18.6581079,80.8310611 22.842962,76.6585716 28.0098983,76.6585716 C33.1707631,76.6585716 37.3510635,80.8310611 37.3510635,85.991652 C37.3510635,91.1643854 33.1707631,95.3459818 28.0098983,95.3459818 M48.518264,81.3774766 C47.9778911,79.0096761 47.0458997,76.7951755 45.7921131,74.8113837 L49.0146178,71.5860144 C50.1697408,70.4385418 50.1758124,68.5701044 49.0237252,67.4226318 L46.6117799,65.0092967 C45.4627285,63.8618241 43.5987456,63.8527172 42.4481764,65.0001897 L39.2196001,68.2240412 C37.235703,66.9672855 35.0210849,66.0383792 32.6622661,65.5010706 L32.6622661,60.9460903 C32.6622661,59.3205041 31.3386561,58 29.70843,58 L26.3052951,58 C24.675069,58 23.3560127,59.3205041 23.3560127,60.9460903 L23.3560127,65.5010706 C21.0275519,66.0247188 18.855435,66.9445182 16.8897527,68.1602927 L13.6854629,64.9273343 C12.5394474,63.7753083 10.6709107,63.752541 9.51730569,64.9076027 L7.09321717,67.3042418 C5.94264791,68.4426074 5.9289868,70.3155983 7.07196655,71.4676243 L10.2732206,74.7096897 C9.01184452,76.6858924 8.06922776,78.900393 7.52581906,81.2606044 L2.97363279,81.2408727 C1.34340669,81.2256945 0.0228324841,82.5477165 0.0228324841,84.1839274 L6.39632054e-05,87.5914352 C-0.0105613465,89.21095 1.30394126,90.5360076 2.93264945,90.549668 L7.47876412,90.5648462 C8.01306541,92.9372002 8.93443155,95.1456295 10.1882181,97.1263857 L6.94749863,100.356308 C5.79844728,101.494674 5.79237567,103.35704 6.93990913,104.51362 L9.33363962,106.928473 C10.4887626,108.092641 12.3557813,108.092641 13.5033147,106.946687 L16.7364447,103.739531 C18.7233776,104.994769 20.9273704,105.943407 23.3028861,106.486787 L23.2846713,111.031142 C23.2785997,112.656729 24.5946202,113.98634 26.2202926,113.98634 L29.6294991,114 C31.2582073,114 32.5818173,112.694674 32.5818173,111.072124 L32.5954784,106.51259 C34.9618867,105.981352 37.1780227,105.047893 39.1695094,103.798726 L42.3829066,107.036238 C43.5289222,108.185228 45.4004946,108.185228 46.5616891,107.036238 L48.9645271,104.63201 C50.11965,103.489091 50.1257216,101.617618 48.9675629,100.474698 L45.7678267,97.2402223 C47.0231312,95.2503591 47.9627121,93.0449654 48.5000492,90.6726115 L53.0507176,90.6877897 C54.6779079,90.6877897 55.9939284,89.3688034 56,87.7447351 L56,84.3281203 C56,82.7116411 54.6900511,81.3956905 53.0704503,81.3956905 L48.518264,81.3774766 Z" id="Fill-41" fill="#2DCBB1" mask="url(#mask-2)"></path>
                <path d="M66.3367556,151 C64.8690965,151 63.4091376,150.815157 62,150.452865 L62.5975359,148.310166 C65.6699179,149.102773 68.9979466,148.886876 71.9240246,147.699445 C73.6319302,147.005915 75.1673511,146.0122 76.4871663,144.746396 C77.8054415,143.479113 78.8403491,142.004806 79.5626283,140.36488 C80.3095483,138.665804 80.6899384,136.860259 80.6899384,135 L83,135 C83,137.158965 82.5595483,139.255823 81.6909651,141.228466 C80.8516427,143.134566 79.6504107,144.845471 78.1196099,146.313863 C76.588809,147.783734 74.8069815,148.935675 72.8234086,149.740111 C70.7674538,150.577079 68.5852156,151 66.3367556,151" id="Fill-42" fill="#414042" mask="url(#mask-2)"></path>
                <polygon id="Fill-43" fill="#414042" mask="url(#mask-2)" points="67 146.738252 63.335867 148.499432 65.1800475 152 62.8427553 151.261748 61 147.76118 64.6612827 146"></polygon>
                <path d="M52.2745392,141 C51.4298387,138.955249 51,136.786528 51,134.553526 C51,132.318993 51.4298387,130.151802 52.2745392,128.108582 C53.0907834,126.135766 54.2589862,124.364975 55.7461982,122.845186 C57.2349078,121.325398 58.9677419,120.130076 60.8967742,119.295952 C64.891129,117.568016 69.5190092,117.568016 73.5133641,119.295952 C74.7564516,119.834689 75.9291475,120.529537 77,121.36213 L75.6400922,123.188019 C74.7175115,122.473274 73.7080645,121.873318 72.6387097,121.409576 C69.2014977,119.923458 65.2086406,119.923458 61.7729263,121.409576 C60.1104839,122.128912 58.6172811,123.158939 57.3352535,124.467518 C56.0532258,125.779159 55.0467742,127.305069 54.3443548,129.002396 C53.6164747,130.762473 53.2465438,132.628155 53.2465438,134.553526 C53.2465438,136.478897 53.6164747,138.34764 54.3443548,140.106187 L52.2745392,141 Z" id="Fill-44" fill="#414042" mask="url(#mask-2)"></path>
                <polygon id="Fill-45" fill="#414042" mask="url(#mask-2)" points="72 121.405027 76.1147776 121.080626 75.7876614 117 77.6728838 118.594973 78 122.675599 73.8852224 123"></polygon>
                <path d="M75,135 C75,139.418195 71.4185236,143 67.0007336,143 C62.5814764,143 59,139.418195 59,135 C59,130.580337 62.5814764,127 67.0007336,127 C71.4185236,127 75,130.580337 75,135" id="Fill-46" fill="#00D4FF" mask="url(#mask-2)"></path>
                <path d="M66.5007658,127.297646 C62.5276904,127.297646 59.2974607,130.528136 59.2974607,134.5 C59.2974607,138.471864 62.5276904,141.702354 66.5007658,141.702354 C70.4723096,141.702354 73.7025393,138.471864 73.7025393,134.5 C73.7025393,130.528136 70.4723096,127.297646 66.5007658,127.297646 M66.5007658,144 C61.2625554,144 57,139.738633 57,134.5 C57,129.261367 61.2625554,125 66.5007658,125 C71.7389762,125 76,129.261367 76,134.5 C76,139.738633 71.7389762,144 66.5007658,144" id="Fill-47" fill="#414042" mask="url(#mask-2)"></path>
                <polygon id="Fill-48" fill="#414042" mask="url(#mask-2)" points="158.475888 61 153 55.5229885 154.524112 54 160 59.4755747"></polygon>
                <path d="M151.743954,52.7443829 C145.811537,58.6767711 136.189616,58.6783084 130.255662,52.7443829 C124.321708,46.8104574 124.321708,37.1901191 130.255662,31.2561936 C136.189616,25.3222681 145.811537,25.3222681 151.743954,31.2561936 C157.677908,37.1901191 157.677908,46.8104574 151.743954,52.7443829 M126.858242,27.8587906 C119.047253,35.6697429 119.047253,48.3323709 126.858242,56.1417858 C134.669232,63.9527381 147.331921,63.9527381 155.142911,56.1417858 C162.952363,48.3323709 162.952363,35.6697429 155.142911,27.8587906 C147.331921,20.0463012 134.669232,20.0478384 126.858242,27.8587906" id="Fill-49" fill="#808285" mask="url(#mask-2)"></path>
                <path d="M127.947613,28.9564222 C120.476794,36.4268009 120.476794,48.5825761 127.947613,56.0529549 C135.421558,63.5248964 147.582155,63.5233336 155.052974,56.0529549 C162.523792,48.5825761 162.523792,36.4268009 155.05141,28.9564222 C151.430901,25.3384459 146.619187,23.3442611 141.499511,23.3442611 C136.381399,23.3442611 131.566559,25.3384459 127.947613,28.9564222 M141.499511,64 C135.992147,64 130.48322,61.9026677 126.288994,57.709566 C117.903669,49.3264883 117.903669,35.6844516 126.288994,27.2982482 C130.351906,23.2379879 135.754532,21 141.499511,21 C147.246054,21 152.647117,23.2379879 156.708466,27.2982482 C165.096918,35.6844516 165.096918,49.3249255 156.710029,57.709566 C152.517366,61.9026677 147.008439,64 141.499511,64" id="Fill-50" fill="#414042" mask="url(#mask-2)"></path>
                <path d="M149.373412,34 C147.003285,32.0164229 143.851292,30.9245574 140.5,30.9245574 C137.147175,30.9245574 133.996715,32.0151399 131.626588,33.998717 L130,32.6374134 C132.803986,30.2907365 136.533947,29 140.5,29 C144.466053,29 148.194481,30.2907365 151,32.6386964 L149.373412,34 Z" id="Fill-51" fill="#414042" mask="url(#mask-2)"></path>
                <polygon id="Fill-52" fill="#2DCBB1" mask="url(#mask-2)" points="156 61.5140671 174.485584 80 180 74.4844155 161.514416 56"></polygon>
                <path d="M173.155841,81 C172.317156,81 171.527179,80.6727549 170.933554,80.0806697 L153,62.1445967 L160.144806,55 L170.037028,64.890411 L168.423587,66.5053272 L160.144806,58.2283105 L156.228405,62.1445967 L172.548517,78.4657534 C172.871206,78.7914764 173.440477,78.7899543 173.764687,78.4657534 L176.46644,75.7656012 C176.627784,75.6012177 176.719111,75.3866058 176.719111,75.1567732 C176.719111,74.9269406 176.627784,74.7108067 176.46644,74.5479452 L173.875801,71.957382 L175.489243,70.3424658 L178.079882,72.9330289 C179.306706,74.1598174 179.306706,76.152207 178.079882,77.3789954 L175.37965,80.0806697 C174.786026,80.6727549 173.996048,81 173.155841,81" id="Fill-53" fill="#414042" mask="url(#mask-2)"></path>
                <polygon id="Fill-54" fill="#414042" mask="url(#mask-2)" points="173.570562 70 171 67.4294375 172.42809 66 175 68.5705625"></polygon>
                <polygon id="Fill-55" fill="#414042" mask="url(#mask-2)" points="160.524425 67 159 65.4755747 164.475575 60 166 61.5229885"></polygon>
                <polygon id="Fill-56" fill="#414042" mask="url(#mask-2)" points="108 28 120 28 120 26 108 26"></polygon>
                <polygon id="Fill-57" fill="#414042" mask="url(#mask-2)" points="109 35 119 35 119 33 109 33"></polygon>
                <polygon id="Fill-58" fill="#414042" mask="url(#mask-2)" points="94 44 119 44 119 42 94 42"></polygon>
                <polygon id="Fill-59" fill="#414042" mask="url(#mask-2)" points="94 49 119 49 119 47 94 47"></polygon>
                <polygon id="Fill-60" fill="#414042" mask="url(#mask-2)" points="94 56 121 56 121 54 94 54"></polygon>
                <polygon id="Fill-61" fill="#414042" mask="url(#mask-2)" points="94 64 130 64 130 62 94 62"></polygon>
                <path d="M99.5086405,26.570235 L97.9926284,30.0558747 L101.005801,30.0558747 L99.5086405,26.570235 Z M103.142356,35 L102.022236,32.4088773 L96.9777644,32.4088773 L95.8592145,35 L93,35 L98.2,23 L100.8,23 L106,35 L103.142356,35 Z" id="Fill-62" fill="#00D4FF" mask="url(#mask-2)"></path>
                <path d="M355,178 L355,175.80397 C355,173.666885 353.268529,171.925779 351.127608,171.925779 L345.111274,171.901597 C344.398138,168.773048 343.16828,165.845513 341.509331,163.221764 L345.768508,158.958172 C347.292989,157.44075 347.302054,154.972673 345.779084,153.455251 L342.592633,150.263225 C341.075707,148.748826 338.611458,148.736735 337.09151,150.252645 L332.824778,154.514726 C330.204908,152.853723 327.278329,151.624974 324.161379,150.914628 L324.161379,144.894816 C324.161379,142.745639 322.413288,141 320.258769,141 L315.759361,141 C313.604843,141 311.862796,142.745639 311.862796,144.894816 L311.862796,150.914628 C308.786639,151.606838 305.915962,152.823496 303.318755,154.430089 L299.085263,150.155917 C297.568337,148.63245 295.099555,148.603734 293.579607,150.131735 L290.373515,153.298068 C288.855078,154.803399 288.836947,157.279033 290.346319,158.8025 L294.5783,163.088763 C292.910286,165.700421 291.663808,168.626445 290.944628,171.745925 L284.929805,171.721743 C282.773776,171.702096 281.030218,173.449246 281.030218,175.610514 L281,178 L305.65458,178 C305.65458,171.179159 311.18592,165.665659 318.013598,165.665659 C324.83221,165.665659 330.355997,171.179159 330.355997,178 L355,178 Z" id="Fill-63" fill="#FFFFFF" mask="url(#mask-2)"></path>
                <path d="M331.118923,177.984945 L328.830798,177.984945 C328.830798,171.832019 323.75421,166.826275 317.512203,166.826275 C311.26257,166.826275 306.178355,171.832019 306.178355,177.984945 L303.890229,177.984945 C303.890229,170.586981 310.00105,164.568044 317.512203,164.568044 C325.01573,164.568044 331.118923,170.586981 331.118923,177.984945 L331.118923,177.984945 Z M281.288126,178 L279,177.971396 L279.030508,175.591221 C279.030508,174.254348 279.562879,172.989739 280.529993,172.042788 C281.492531,171.101858 282.752526,170.630641 284.120825,170.602036 L289.288938,170.621608 C289.978426,168.042708 291.024862,165.585753 292.40689,163.292896 L288.76572,159.654134 C287.815385,158.708688 287.295218,157.448596 287.302845,156.108712 C287.310472,154.768828 287.842842,153.514758 288.800804,152.578345 L292.039265,149.421338 C292.981972,148.486431 294.246543,147.968543 295.596537,147.968543 L295.598063,147.968543 C296.961785,147.968543 298.246186,148.495464 299.213301,149.452954 L302.859048,153.084188 C305.179207,151.75936 307.627501,150.764233 310.159693,150.116873 L310.159693,145.008756 C310.159693,142.246187 312.437141,140 315.237807,140 L319.778973,140 C322.582689,140 324.863188,142.246187 324.863188,145.008756 L324.863188,150.118379 C327.48538,150.792837 329.979437,151.813557 332.29502,153.165485 L335.966698,149.546294 C337.943639,147.599699 341.157692,147.607226 343.137684,149.558338 L346.354788,152.736421 C347.311225,153.67735 347.839019,154.931421 347.839019,156.268294 C347.837494,157.611188 347.305123,158.871281 346.341059,159.818232 L342.680059,163.432907 C344.051409,165.728775 345.087167,168.194762 345.770554,170.785706 L350.95087,170.803772 C353.731705,170.803772 356,173.043936 356,175.795967 L356,177.984945 L353.711874,177.984945 L353.711874,175.795967 C353.711874,174.288974 352.470185,173.062002 350.946293,173.062002 L343.958358,173.036409 L343.755478,172.161721 C343.073616,169.204944 341.900571,166.413771 340.268374,163.866487 L339.780241,163.103205 L344.725643,158.219405 C345.258013,157.695495 345.550893,157.002971 345.550893,156.266788 C345.550893,155.536627 345.261064,154.850125 344.739372,154.335248 L341.519216,151.155659 C340.431594,150.083753 338.666686,150.079236 337.582115,151.145121 L332.627561,156.028921 L331.854174,155.54566 C329.283846,153.936294 326.4603,152.78008 323.465906,152.107127 L322.575062,151.906898 L322.575062,145.008756 C322.575062,143.491225 321.32117,142.258231 319.778973,142.258231 L315.237807,142.258231 C313.698661,142.258231 312.447819,143.491225 312.447819,145.008756 L312.447819,151.909908 L311.553924,152.108633 C308.663259,152.746959 305.879373,153.87758 303.278537,155.467375 L302.505151,155.938592 L297.590257,151.044253 C297.057887,150.517333 296.350093,150.226774 295.598063,150.226774 L295.596537,150.226774 C294.859761,150.226774 294.170272,150.5083 293.653156,151.021671 L290.410119,154.183194 C289.886901,154.69506 289.594021,155.383067 289.589445,156.120756 C289.586394,156.856939 289.871647,157.547958 290.391814,158.067351 L295.306708,162.97825 L294.815524,163.738521 C293.169599,166.284299 291.9874,169.06644 291.299437,172.008161 L291.095031,172.887366 L284.107096,172.860267 C283.362693,172.851234 282.665577,173.131255 282.142359,173.646131 C281.609989,174.165524 281.318634,174.861059 281.318634,175.60477 L281.288126,178 Z" id="Fill-64" fill="#414042" mask="url(#mask-2)"></path>
                <polygon id="Fill-65" fill="#079E86" mask="url(#mask-2)" points="266 241 279 241 279 178 266 178"></polygon>
                <path d="M267.32288,180.289216 L267.32288,239.039656 C267.32288,239.961447 268.083237,240.710784 269.018583,240.710784 L278.67712,240.710784 L278.67712,180.289216 L267.32288,180.289216 Z M281,243 L269.018583,243 C266.802555,243 265,241.223568 265,239.039656 L265,178 L281,178 L281,243 Z" id="Fill-66" fill="#414042" mask="url(#mask-2)"></path>
                <polygon id="Fill-67" fill="#7FF4E1" mask="url(#mask-2)" points="259 188 272.590015 188 277 179 263.408446 179"></polygon>
                <path d="M260.723173,187.591329 L271.92394,187.591329 L275.276827,180.408671 L264.07606,180.408671 L260.723173,187.591329 Z M273.397273,190 L257,190 L262.601165,178 L279,178 L273.397273,190 Z" id="Fill-68" fill="#414042" mask="url(#mask-2)"></path>
                <polygon id="Fill-69" fill="#2DCBB1" mask="url(#mask-2)" points="279 241 361 241 361 178 279 178"></polygon>
                <path d="M354.555294,243 L278,243 L278,178 L361,178 L361,208.957831 L358.729138,208.957831 L358.729138,180.289216 L280.270862,180.289216 L280.270862,240.710784 L354.555294,240.710784 C356.857948,240.710784 358.729138,238.822944 358.729138,236.503205 L358.729138,230.949567 L361,230.949567 L361,236.503205 C361,240.085065 358.10995,243 354.555294,243" id="Fill-70" fill="#414042" mask="url(#mask-2)"></path>
                <polygon id="Fill-71" fill="#7FF4E1" mask="url(#mask-2)" points="367 188 286.335392 188 282 179 362.664608 179"></polygon>
                <path d="M286.881569,187.591329 L365.379161,187.591329 L362.118431,180.408671 L283.620839,180.408671 L286.881569,187.591329 Z M369,190 L285.448732,190 L280,178 L363.551268,178 L369,190 Z" id="Fill-72" fill="#414042" mask="url(#mask-2)"></path>
                <path d="M482.963982,99 L432.036018,99 C430.35968,99 429,97.5844264 429,95.8376149 L429,59.1608226 C429,57.4155736 430.35968,56 432.036018,56 L482.963982,56 C484.64032,56 486,57.4155736 486,59.1608226 L486,95.8376149 C486,97.5844264 484.64032,99 482.963982,99" id="Fill-73" fill="#FFFFFF" mask="url(#mask-2)"></path>
                <path d="M429,65 L429,58.9192091 C429,57.3054372 430.278639,56 431.855928,56 L483.144072,56 C484.721361,56 486,57.3054372 486,58.9192091 L486,65 L429,65 Z" id="Fill-74" fill="#00D4FF" mask="url(#mask-2)"></path>
                <path d="M429.246993,68 L427,68 L427,58.9880897 C427,56.7888529 428.782614,55 430.974182,55 L461,55 L461,57.2548566 L430.974182,57.2548566 C430.022955,57.2548566 429.246993,58.0320305 429.246993,58.9880897 L429.246993,68 Z" id="Fill-75" fill="#414042" mask="url(#mask-2)"></path>
                <path d="M483.968187,100 L432.031813,100 C429.808465,100 428,98.1957893 428,95.9776713 L428,91.1623996 L430.279578,91.1623996 L430.279578,95.9776713 C430.279578,96.9404225 431.065272,97.7257848 432.031813,97.7257848 L483.968187,97.7257848 C484.934728,97.7257848 485.720422,96.9404225 485.720422,95.9776713 L485.720422,60.0223287 C485.720422,59.0580614 484.934728,58.2742152 483.968187,58.2742152 L474.039867,58.2742152 L474.039867,56 L483.968187,56 C486.191535,56 488,57.8042107 488,60.0223287 L488,95.9776713 C488,98.1957893 486.191535,100 483.968187,100" id="Fill-76" fill="#414042" mask="url(#mask-2)"></path>
                <polygon id="Fill-77" fill="#414042" mask="url(#mask-2)" points="467 57 472 57 472 55 467 55"></polygon>
                <polygon id="Fill-78" fill="#414042" mask="url(#mask-2)" points="429 66 486 66 486 64 429 64"></polygon>
                <polygon id="Fill-79" fill="#414042" mask="url(#mask-2)" points="435 62 437 62 437 60 435 60"></polygon>
                <polygon id="Fill-80" fill="#414042" mask="url(#mask-2)" points="442 62 444 62 444 60 442 60"></polygon>
                <polygon id="Fill-81" fill="#414042" mask="url(#mask-2)" points="446 62 448 62 448 60 446 60"></polygon>
                <path d="M428.739651,89 L428.260349,89 C426.468119,89 425,87.3567762 425,85.3454825 L425,74.6575975 C425,72.6463039 426.468119,71 428.260349,71 L428.739651,71 C430.533255,71 432,72.6463039 432,74.6575975 L432,85.3454825 C432,87.3567762 430.533255,89 428.739651,89" id="Fill-82" fill="#2DCBB1" mask="url(#mask-2)"></path>
                <path d="M428.735486,71.388535 C427.377293,71.388535 426.273761,72.5493631 426.273761,73.9745223 L426.273761,85.0254777 C426.273761,86.4506369 427.377293,87.611465 428.735486,87.611465 L429.264514,87.611465 C430.621191,87.611465 431.726239,86.4506369 431.726239,85.0254777 L431.726239,73.9745223 C431.726239,72.5493631 430.621191,71.388535 429.264514,71.388535 L428.735486,71.388535 Z M429.264514,90 L428.735486,90 C426.123693,90 424,87.7675159 424,85.0254777 L424,73.9745223 C424,71.2308917 426.123693,69 428.735486,69 L429.264514,69 C431.874792,69 434,71.2308917 434,73.9745223 L434,85.0254777 C434,87.7675159 431.874792,90 429.264514,90 L429.264514,90 Z" id="Fill-83" fill="#414042" mask="url(#mask-2)"></path>
                <path d="M421.799964,76.1509231 C420.889407,76.1509231 420.150923,76.8908407 420.150923,77.7985302 L420.150923,78.2000358 C420.150923,79.1091593 420.889407,79.8490769 421.799964,79.8490769 L422.200036,79.8490769 C423.109159,79.8490769 423.849077,79.1091593 423.849077,78.2000358 L423.849077,77.7985302 C423.849077,76.8908407 423.109159,76.1509231 422.200036,76.1509231 L421.799964,76.1509231 Z M422.200036,82 L421.799964,82 C419.704965,82 418,80.295035 418,78.2000358 L418,77.7985302 C418,75.7035311 419.704965,74 421.799964,74 L422.200036,74 C424.295035,74 426,75.7035311 426,77.7985302 L426,78.2000358 C426,80.295035 424.295035,82 422.200036,82 L422.200036,82 Z" id="Fill-84" fill="#414042" mask="url(#mask-2)"></path>
                <polygon id="Fill-85" fill="#414042" mask="url(#mask-2)" points="433 81 463 81 463 79 433 79"></polygon>
                <polygon id="Fill-86" fill="#414042" mask="url(#mask-2)" points="459 85 461 85 461 79 459 79"></polygon>
                <polygon id="Fill-87" fill="#414042" mask="url(#mask-2)" points="452 83 454 83 454 79 452 79"></polygon>
                <polygon id="Fill-88" fill="#414042" mask="url(#mask-2)" points="427 82 429 82 429 74 427 74"></polygon>
                <path d="M87.9286113,224 L26.0698712,224 C24.374841,224 23,222.632811 23,220.945705 L23,178.054295 C23,176.368698 24.374841,175 26.0698712,175 L87.9286113,175 C89.625159,175 91,176.368698 91,178.054295 L91,220.945705 C91,222.632811 89.625159,224 87.9286113,224" id="Fill-89" fill="#FFFFFF" mask="url(#mask-2)"></path>
                <path d="M23,185 L23,178.244258 C23,176.453127 24.5265554,175 26.4066768,175 L87.5902883,175 C89.4734446,175 91,176.453127 91,178.244258 L91,185 L23,185 Z" id="Fill-90" fill="#2DCBB1" mask="url(#mask-2)"></path>
                <polygon id="Fill-91" fill="#414042" mask="url(#mask-2)" points="23 187 91 187 91 185 23 185"></polygon>
                <polygon id="Fill-92" fill="#414042" mask="url(#mask-2)" points="30 181 34 181 34 179 30 179"></polygon>
                <polygon id="Fill-93" fill="#414042" mask="url(#mask-2)" points="36 181 40 181 40 179 36 179"></polygon>
                <polygon id="Fill-94" fill="#414042" mask="url(#mask-2)" points="43 181 47 181 47 179 43 179"></polygon>
                <path d="M86.0963961,225 L84.6540678,225 L84.6540678,222.703924 L86.0963961,222.703924 C87.5059088,222.703924 88.6560211,221.578847 88.6560211,220.195078 L88.6560211,177.803391 C88.6560211,176.421153 87.5059088,175.296076 86.0963961,175.296076 L75,175.296076 L75,173 L86.0963961,173 C88.7982225,173 91,175.15525 91,177.803391 L91,220.195078 C91,222.84475 88.7982225,225 86.0963961,225" id="Fill-95" fill="#414042" mask="url(#mask-2)"></path>
                <polygon id="Fill-96" fill="#414042" mask="url(#mask-2)" points="64 176 72 176 72 174 64 174"></polygon>
                <path d="M27.9256668,225 L26.8398601,225 C24.1700711,225 22,222.84475 22,220.195078 L22,177.803391 C22,175.15525 24.1700711,173 26.8398601,173 L63,173 L63,175.296076 L26.8398601,175.296076 C25.4471279,175.296076 24.3135086,176.421153 24.3135086,177.803391 L24.3135086,220.195078 C24.3135086,221.578847 25.4471279,222.703924 26.8398601,222.703924 L27.9256668,222.703924 L27.9256668,225 Z" id="Fill-97" fill="#414042" mask="url(#mask-2)"></path>
                <path d="M86,242 C86,225.431644 72.7925552,212 56.5007552,212 C40.2089552,212 27,225.431644 27,242 L86,242 Z" id="Fill-98" fill="#00D4FF" mask="url(#mask-2)"></path>
                <path d="M87,241 L84.7441385,241 C84.7441385,225.681953 72.0737161,213.218935 56.500752,213.218935 C40.9262839,213.218935 28.2558615,225.681953 28.2558615,241 L26,241 C26,224.457101 39.6825522,211 56.500752,211 C73.3174478,211 87,224.457101 87,241" id="Fill-99" fill="#414042" mask="url(#mask-2)"></path>
                <path d="M83,241 C83,227.192247 71.5835626,216 57.4992289,216 C43.4164374,216 32,227.192247 32,241 L83,241 Z" id="Fill-100" fill="#FFFFFF" mask="url(#mask-2)"></path>
                <path d="M71,242 C71,234.268192 64.9568357,228 57.49925,228 C50.0431643,228 44,234.268192 44,242 L71,242 Z" id="Fill-101" fill="#D1D3D4" mask="url(#mask-2)"></path>
                <path d="M60,241 C60,238.79055 58.6564327,237 56.998538,237 C55.3421053,237 54,238.79055 54,241 L60,241 Z" id="Fill-102" fill="#414042" mask="url(#mask-2)"></path>
                <path d="M83,241 L80.7003847,241 C80.7003847,227.908249 69.8446675,217.256161 56.4992335,217.256161 C43.1553325,217.256161 32.2996153,227.908249 32.2996153,241 L30,241 C30,226.664353 41.8874779,215 56.4992335,215 C71.1125221,215 83,226.664353 83,241" id="Fill-103" fill="#414042" mask="url(#mask-2)"></path>
                <polygon id="Fill-104" fill="#414042" mask="url(#mask-2)" points="59.8986355 221 56 220.976123 56.1013645 217 60 217.023877"></polygon>
                <polygon id="Fill-105" fill="#414042" mask="url(#mask-2)" points="66.8110292 224 65 222.868398 67.1889708 219 69 220.131602"></polygon>
                <polygon id="Fill-106" fill="#414042" mask="url(#mask-2)" points="75.0101985 232 74 230.214188 77.9884234 228 79 229.785812"></polygon>
                <polygon id="Fill-107" fill="#414042" mask="url(#mask-2)" points="37.9389334 232 34 229.724807 35.0610666 228 39 230.275193"></polygon>
                <polygon id="Fill-108" fill="#414042" mask="url(#mask-2)" points="47.1272337 224 45 220.078691 46.8713367 219 49 222.922782"></polygon>
                <polygon id="Fill-109" fill="#414042" mask="url(#mask-2)" points="56 239.410237 67.371696 229 68 229.617237 57.617807 241"></polygon>
                <polygon id="Fill-110" fill="#414042" mask="url(#mask-2)" points="56 211 58 211 58 206 56 206"></polygon>
                <path d="M62.7817952,209 L53.2166877,209 C52.5446271,209 52,208.540451 52,207.972094 L52,205.026626 C52,204.459549 52.5446271,204 53.2182048,204 L62.7817952,204 C63.4538559,204 64,204.459549 64,205.026626 L64,207.970814 C64,208.540451 63.4538559,209 62.7817952,209" id="Fill-111" fill="#66E5FF" mask="url(#mask-2)"></path>
                <path d="M53.3117628,203.219756 L53.2314313,206.701813 L62.6897248,206.780244 C62.7328658,206.780244 62.7685687,206.744728 62.7685687,206.701813 L62.7685687,203.298187 L53.3117628,203.219756 Z M62.6897248,209 L53.3117628,209 C52.0383594,209 51,207.968553 51,206.701813 L51,203.298187 C51,202.029967 52.0383594,201 53.3117628,201 L62.6897248,201 C63.9631283,201 65,202.029967 65,203.298187 L65,206.701813 C65,207.968553 63.9631283,209 62.6897248,209 L62.6897248,209 Z" id="Fill-112" fill="#414042" mask="url(#mask-2)"></path>
                <polygon id="Fill-113" fill="#414042" mask="url(#mask-2)" points="73.9301634 216 72 215.050933 74.0698366 212 76 212.949067"></polygon>
                <path d="M77.2265117,214.849613 L71.5856503,211.751585 C71.0259369,211.443861 70.8335355,210.763265 71.1571198,210.230987 L72.1730578,208.556527 C72.4966421,208.024248 73.2123173,207.841277 73.7734883,208.150387 L79.4143497,211.248415 C79.9740631,211.556139 80.1664645,212.236735 79.8428802,212.769013 L78.8269422,214.443473 C78.5033579,214.975752 77.7876827,215.158723 77.2265117,214.849613" id="Fill-114" fill="#66E5FF" mask="url(#mask-2)"></path>
                <path d="M78.438321,214.698506 C78.4774068,214.719886 78.5290002,214.707669 78.5524517,214.669489 L79.6437292,212.824628 L73.5619678,209.301371 L72.3565596,211.173722 L78.438321,214.698506 Z M78.4758434,217 C78.0646601,217 77.647223,216.897677 77.2657449,216.682342 L71.2152522,213.267517 C70.6539791,212.949858 70.2521763,212.439773 70.0833254,211.827364 C69.9160379,211.216483 70.0020268,210.576585 70.3287846,210.026792 L71.4169353,208.183459 C72.0876488,207.051802 73.5776022,206.663892 74.7345439,207.317535 L80.7850366,210.730833 C81.3463097,211.046964 81.7481125,211.558577 81.9169634,212.172512 C82.0842509,212.783393 81.9966986,213.423291 81.6730676,213.971557 L80.5833535,215.814891 C80.1346477,216.575438 79.3169713,217 78.4758434,217 L78.4758434,217 Z" id="Fill-115" fill="#414042" mask="url(#mask-2)"></path>
                <polygon id="Fill-116" fill="#414042" mask="url(#mask-2)" points="40.0698366 216 38 212.949067 39.9301634 212 42 215.050933"></polygon>
                <path d="M36.7733902,214.85059 L42.4140522,211.751361 C42.9752033,211.443656 43.1661404,210.7631 42.8425676,210.230853 L41.8266654,208.556493 C41.5030926,208.024246 40.7874427,207.841286 40.2277491,208.150378 L34.5856296,211.248221 C34.025936,211.555927 33.8335414,212.236482 34.1571142,212.768729 L35.1744739,214.443089 C35.4980468,214.975336 36.2136966,215.158296 36.7733902,214.85059" id="Fill-117" fill="#66E5FF" mask="url(#mask-2)"></path>
                <path d="M41.5527864,209.331386 L35.3866697,212.71608 L36.4469353,214.670256 L36.5610937,214.699263 L42.6130519,211.285562 L41.5527864,209.331386 Z M36.5219983,217 C36.3108835,217 36.0997687,216.974046 35.8902177,216.920612 C35.2646923,216.755728 34.7408148,216.363366 34.4171054,215.815281 L33.3239997,213.971027 C32.6562514,212.838216 33.05346,211.386324 34.2138096,210.732896 L40.2673317,207.320722 C40.8256131,207.003168 41.4808509,206.917673 42.1079401,207.08103 C42.7350294,207.245913 43.2589069,207.638275 43.5841801,208.18636 L44.6741581,210.030614 C45.3450341,211.161899 44.9462616,212.613791 43.7874758,213.268745 L37.7355176,216.68092 C37.3586386,216.893131 36.944228,217 36.5219983,217 L36.5219983,217 Z" id="Fill-118" fill="#414042" mask="url(#mask-2)"></path>
                <path d="M381,243 L455,243 L455,156.360601 C455,154.504182 453.486819,153 451.619652,153 L384.380348,153 C382.513181,153 381,154.504182 381,156.360601 L381,243 Z" id="Fill-119" fill="#FFFFFF" mask="url(#mask-2)"></path>
                <path d="M381.164112,230 L379,230 L379,158.635637 C379,154.425404 382.228855,151 386.199279,151 L395,151 L395,153.294822 L386.199279,153.294822 C383.422002,153.294822 381.164112,155.690615 381.164112,158.635637 L381.164112,230 Z" id="Fill-120" fill="#414042" mask="url(#mask-2)"></path>
                <polygon id="Fill-121" fill="#414042" mask="url(#mask-2)" points="402 153 414 153 414 151 402 151"></polygon>
                <path d="M456,230 L453.709749,230 L453.709749,158.635637 C453.709749,155.690615 451.320253,153.294822 448.381098,153.294822 L416,153.294822 L416,151 L448.381098,151 C452.582945,151 456,154.425404 456,158.635637 L456,230 Z" id="Fill-122" fill="#414042" mask="url(#mask-2)"></path>
                <polygon id="Fill-123" fill="#2DCBB1" mask="url(#mask-2)" points="386 243 449 243 449 166 386 166"></polygon>
                <polygon id="Fill-124" fill="#414042" mask="url(#mask-2)" points="410 161 426 161 426 159 410 159"></polygon>
                <path d="M460,243 L460,240.565166 C460,238.195443 458.05865,236.267866 455.657627,236.267866 L448.909635,236.242124 C448.108272,232.773092 446.729255,229.529675 444.869113,226.623924 L449.645111,221.898105 C451.356625,220.217343 451.365818,217.482697 449.658901,215.800421 L446.084181,212.266278 C444.383393,210.585515 441.619229,210.571888 439.915376,212.25265 L435.128653,216.97544 C432.189813,215.135687 428.907752,213.772907 425.411176,212.987037 L425.411176,206.315471 C425.411176,203.933634 423.449907,202 421.032029,202 L415.986358,202 C413.570012,202 411.616404,203.933634 411.616404,206.315471 L411.616404,212.987037 C408.167328,213.754736 404.946556,215.100861 402.033765,216.88156 L397.283815,212.146656 C395.584559,210.459837 392.815799,210.423496 391.107349,212.117886 L387.51271,215.627802 C385.808857,217.294937 385.787406,220.038668 387.483598,221.725487 L392.22895,226.475533 C390.358083,229.369169 388.960679,232.612586 388.154719,236.069505 L381.406727,236.040736 C378.990382,236.021051 377.033709,237.956199 377.033709,240.351664 L377,243 L404.652366,243 C404.652366,235.441112 410.856412,229.331314 418.514556,229.331314 C426.163507,229.331314 432.359892,235.441112 432.359892,243 L460,243 Z" id="Fill-125" fill="#00D4FF" mask="url(#mask-2)"></path>
                <path d="M433.105137,242.984553 L430.868744,242.984553 C430.868744,235.934512 425.326962,230.199016 418.514909,230.199016 C411.693911,230.199016 406.144674,235.934512 406.144674,242.984553 L403.908281,242.984553 C403.908281,234.655494 410.460913,227.881956 418.514909,227.881956 C426.55996,227.881956 433.105137,234.655494 433.105137,242.984553 L433.105137,242.984553 Z M379.236393,243 L377,242.969106 L377.034291,240.267414 C377.034291,238.782951 377.597862,237.378812 378.620639,236.326867 C379.635962,235.28419 380.971834,234.687933 382.416544,234.726551 L388.096982,234.752811 C388.846919,231.771527 389.996425,228.932356 391.523136,226.292452 L387.525957,222.097029 C386.51958,221.046629 385.967936,219.647124 385.976882,218.158027 C385.984336,216.672019 386.546416,215.278694 387.560248,214.239106 L391.060948,210.656931 C393.069229,208.566943 396.616149,208.579301 398.649775,210.69246 L402.652919,214.880159 C405.202407,213.343176 407.896515,212.19237 410.684552,211.454 L410.684552,205.560944 C410.684552,202.494701 413.093893,200 416.054877,200 L420.964505,200 C423.931453,200 426.343776,202.494701 426.343776,205.560944 L426.343776,211.455545 C429.228723,212.226353 431.96905,213.406509 434.514065,214.971297 L438.545536,210.7975 C440.635818,208.641089 444.039608,208.644179 446.131381,210.812947 L449.609718,214.419837 C450.622059,215.464059 451.179666,216.858929 451.178175,218.341847 C451.176684,219.830944 450.614604,221.230449 449.593318,222.282394 L445.572283,226.450013 C447.087067,229.09764 448.226136,231.944534 448.97011,234.935086 L454.659493,234.959802 C457.602587,234.959802 460,237.445235 460,240.500665 L460,242.984553 L457.763607,242.984553 L457.763607,240.500665 C457.763607,238.722707 456.369589,237.276862 454.655021,237.276862 L447.197395,237.244423 L446.999102,236.348493 C446.25811,232.979488 444.984857,229.800481 443.213634,226.896433 L442.736537,226.113267 L448.014424,220.640371 C448.612287,220.024033 448.941782,219.206883 448.941782,218.340302 C448.943273,217.476811 448.61825,216.667385 448.030825,216.058771 L444.550997,212.450336 C443.328435,211.183676 441.344009,211.180587 440.125921,212.437978 L434.837597,217.910874 L434.081696,217.413478 C431.290677,215.583001 428.22831,214.263822 424.976594,213.496102 L424.107383,213.290656 L424.107383,205.560944 C424.107383,203.772174 422.698455,202.31706 420.964505,202.31706 L416.054877,202.31706 C414.326891,202.31706 412.920945,203.772174 412.920945,205.560944 L412.920945,213.293746 L412.047261,213.497647 C408.908856,214.228293 405.888234,215.516579 403.065906,217.326975 L402.310005,217.810468 L397.061936,212.32367 C395.87963,211.097173 393.816185,211.074002 392.638351,212.298955 L389.134669,215.885764 C388.544261,216.491289 388.217747,217.30226 388.213275,218.170385 C388.208802,219.03851 388.529352,219.85257 389.113796,220.465819 L394.360374,225.969609 L393.878804,226.749686 C392.092671,229.6491 390.808981,232.820383 390.062026,236.175486 L389.860751,237.07605 L382.403126,237.043611 C381.553296,237.037432 380.785468,237.366455 380.19506,237.973524 C379.598689,238.585228 379.270684,239.407012 379.270684,240.281316 L379.236393,243 Z" id="Fill-126" fill="#414042" mask="url(#mask-2)"></path>
                <path d="M289,27 L294.294828,27 L294.294828,16.1892083 C294.294828,10.7700582 298.647816,6.35954858 304,6.35954858 C309.352184,6.35954858 313.706681,10.7700582 313.706681,16.1892083 L313.706681,27 L319,27 L319,16.1892083 C319,7.81290778 312.271282,1 304,1 C295.728718,1 289,7.81290778 289,16.1892083 L289,27 Z" id="Fill-127" fill="#E6E7E8" mask="url(#mask-2)"></path>
                <path d="M315.585938,24.8123481 L318.684319,24.8123481 L318.684319,15.5892076 C318.684319,8.1993194 312.320827,2.18765192 304.498456,2.18765192 C296.677629,2.18765192 290.315681,8.1993194 290.315681,15.5892076 L290.315681,24.8123481 L293.415606,24.8123481 L293.415606,15.5892076 C293.415606,9.81380651 298.386602,5.11473019 304.498456,5.11473019 C310.611854,5.11473019 315.585938,9.81380651 315.585938,15.5892076 L315.585938,24.8123481 Z M321,27 L313.270256,27 L313.270256,15.5892076 C313.270256,11.0199319 309.335142,7.30238211 304.498456,7.30238211 C299.664858,7.30238211 295.731287,11.0199319 295.731287,15.5892076 L295.731287,27 L288,27 L288,15.5892076 C288,6.99319397 295.400917,0 304.498456,0 C313.597539,0 321,6.99319397 321,15.5892076 L321,27 Z" id="Fill-128" fill="#414042" mask="url(#mask-2)"></path>
                <path d="M285,37.5 C285,48.2690421 293.729439,57 304.5,57 C315.269042,57 324,48.2690421 324,37.5 C324,26.7294393 315.269042,18 304.5,18 C293.729439,18 285,26.7294393 285,37.5" id="Fill-129" fill="#FFFFFF" mask="url(#mask-2)"></path>
                <path d="M293,37 C293,43.0741552 297.925014,48 304.001505,48 C310.076492,48 315,43.0741552 315,37 C315,30.9258448 310.076492,26 304.001505,26 C297.925014,26 293,30.9258448 293,37" id="Fill-130" fill="#2DCBB1" mask="url(#mask-2)"></path>
                <path d="M300,38.5 C300,40.9863352 302.013665,43 304.5,43 C306.984853,43 309,40.9863352 309,38.5 C309,36.0136648 306.984853,34 304.5,34 C302.013665,34 300,36.0136648 300,38.5" id="Fill-131" fill="#00D4FF" mask="url(#mask-2)"></path>
                <path d="M303,37 C303,38.105309 303.896042,39 304.99913,39 C306.103958,39 307,38.105309 307,37 C307,35.894691 306.103958,35 304.99913,35 C303.896042,35 303,35.894691 303,37" id="Fill-132" fill="#414042" mask="url(#mask-2)"></path>
                <path d="M304,33.3765514 C302.002112,33.3765514 300.376551,35.0005281 300.376551,37 C300.376551,38.9978875 302.002112,40.6234486 304,40.6234486 C305.997888,40.6234486 307.623449,38.9978875 307.623449,37 C307.623449,35.0005281 305.997888,33.3765514 304,33.3765514 M304,43 C300.691841,43 298,40.3081595 298,37 C298,33.6902561 300.691841,31 304,31 C307.308159,31 310,33.6902561 310,37 C310,40.3081595 307.308159,43 304,43" id="Fill-133" fill="#414042" mask="url(#mask-2)"></path>
                <path d="M305.5,57 C299.005703,57 292.925901,54.1080206 288.818911,49.0660412 L290.660412,47.567844 C294.313355,52.0529433 299.722369,54.6269316 305.5,54.6269316 C316.045916,54.6269316 324.626932,46.0459161 324.626932,35.5 C324.626932,24.9525018 316.045916,16.3730684 305.5,16.3730684 C294.954084,16.3730684 286.373068,24.9525018 286.373068,35.5 C286.373068,37.5250184 286.686313,39.5168138 287.306475,41.4215968 L285.050478,42.1556659 C284.354378,40.0151582 284,37.7749816 284,35.5 C284,23.6441501 293.645732,14 305.5,14 C317.354268,14 327,23.6441501 327,35.5 C327,47.3542678 317.354268,57 305.5,57" id="Fill-134" fill="#414042" mask="url(#mask-2)"></path>
                <path d="M286.207756,48 C285.782271,47.2680539 285.376731,46.5214198 285,45.752754 L287.920776,44 C288.259834,44.6854345 288.61662,45.3537332 289,46.0073439 L286.207756,48 Z" id="Fill-135" fill="#414042" mask="url(#mask-2)"></path>
                <polygon id="Fill-136" fill="#414042" mask="url(#mask-2)" points="303 31 305 31 305 27 303 27"></polygon>
                <polygon id="Fill-137" fill="#414042" mask="url(#mask-2)" points="301.553672 34 300 31.3767783 302.446328 30 304 32.6232217"></polygon>
                <polygon id="Fill-138" fill="#414042" mask="url(#mask-2)" points="298.623222 35 296 33.4463277 297.376778 31 300 32.5536723"></polygon>
                <polygon id="Fill-139" fill="#414042" mask="url(#mask-2)" points="299 38 295 37.9986676 295 36 299 36.0013324"></polygon>
                <polygon id="Fill-140" fill="#414042" mask="url(#mask-2)" points="297.376147 43 296 40.5529412 298.623853 39 300 41.4470588"></polygon>
                <polygon id="Fill-141" fill="#414042" mask="url(#mask-2)" points="302.445176 46 300 44.6220183 301.554824 42 304 43.3779817"></polygon>
                <polygon id="Fill-142" fill="#414042" mask="url(#mask-2)" points="304.998668 46 303 45.9975758 303.001332 42 305 42.0024242"></polygon>
                <polygon id="Fill-143" fill="#414042" mask="url(#mask-2)" points="307.55252 46 306 43.3749426 308.44748 42 310 44.6250574"></polygon>
                <polygon id="Fill-144" fill="#414042" mask="url(#mask-2)" points="310.620183 43 308 41.4444444 309.379817 39 312 40.5555556"></polygon>
                <polygon id="Fill-145" fill="#414042" mask="url(#mask-2)" points="314 38 310 37.9986676 310 36 314 36.0013324"></polygon>
                <polygon id="Fill-146" fill="#414042" mask="url(#mask-2)" points="309.373737 35 308 32.5506359 310.626263 31 312 33.4493641"></polygon>
                <polygon id="Fill-147" fill="#414042" mask="url(#mask-2)" points="308.445176 34 306 32.621386 307.554824 30 310 31.378614"></polygon>
            </g>
        </g>
    </g>
</svg>