
<svg width="479px" height="230px" viewBox="0 0 479 230" version="1.1" xmlns="http://www.w3.org/2000/svg" xmlns:xlink="http://www.w3.org/1999/xlink">
    <defs>
        <polygon id="path-1" points="0.149661333 0.21492314 228.50369 0.21492314 228.50369 107.176348 0.149661333 107.176348"></polygon>
        <polygon id="path-3" points="0 294 488.081806 294 488.081806 0.906646707 0 0.906646707"></polygon>
        <polygon id="path-5" points="0 0.79825 128.677036 0.79825 128.677036 61.331485 0 61.331485"></polygon>
    </defs>
    <g id="Page-1" stroke="none" stroke-width="1" fill="none" fill-rule="evenodd">
        <g id="PactFlow-Homepage-Option-A-v2.0" transform="translate(-126.000000, -4141.000000)">
            <g id="Group-120" transform="translate(116.000000, 4131.000000)">
                <g id="Group-111">
                    <path d="M284.335558,81.9187868 L285.229127,81.9187868 C289.158717,68.3666192 301.631735,58.4516012 316.438936,58.4516012 C322.903235,58.4516012 328.911954,60.361721 333.974335,63.6168467 C337.260134,42.2657569 355.645127,25.8985832 377.898145,25.8985832 C397.873267,25.8985832 414.77367,39.0722479 420.402447,57.2104635 C422.937155,56.5273976 425.589717,56.1312898 428.340781,56.1312898 C443.585972,56.1312898 456.187396,67.3120922 458.495195,81.9187868 L463.473145,81.9187868 C476.025317,81.9187868 486.294317,92.1964635 486.294317,104.757481 L486.294317,106.440499 C486.294317,119.001517 476.025317,129.279194 463.473145,129.279194 L284.335558,129.279194 C271.785145,129.279194 261.516145,119.001517 261.516145,106.440499 L261.516145,104.757481 C261.516145,92.1964635 271.785145,81.9187868 284.335558,81.9187868" id="Fill-1" fill="#D1D3D4"></path>
                    <path d="M305.325092,87.5285533 L306.111362,87.5285533 C309.576577,75.5819425 320.572041,66.8411641 333.625527,66.8411641 C339.324664,66.8411641 344.619232,68.5259425 349.083556,71.3937629 C351.980617,52.5724814 368.186218,38.1435952 387.806023,38.1435952 C405.413541,38.1435952 420.31221,49.755715 425.274329,65.7461461 C427.50825,65.1458228 429.84771,64.7954874 432.273362,64.7954874 C445.712067,64.7954874 456.820106,74.6506491 458.855261,87.5285533 L463.243948,87.5285533 C474.308013,87.5285533 483.361549,96.5879784 483.361549,107.663152 L483.361549,109.145475 C483.361549,120.218889 474.308013,129.280074 463.243948,129.280074 L305.325092,129.280074 C294.259268,129.280074 285.207491,120.218889 285.207491,109.145475 L285.207491,107.663152 C285.207491,96.5879784 294.259268,87.5285533 305.325092,87.5285533" id="Fill-3" fill="#FFFFFF"></path>
                    <path d="M350.415465,60.9821138 L347.416382,59.035024 C354.619458,47.9316826 366.800483,41.3017186 379.999965,41.3017186 C386.979649,41.3017186 393.827408,43.1748683 399.804465,46.7204731 L397.98039,49.7995509 C392.555656,46.5796347 386.339375,44.8807725 379.999965,44.8807725 C368.014188,44.8807725 356.9554,50.8998503 350.415465,60.9821138" id="Fill-5" fill="#414042"></path>
                    <g id="Group-9" transform="translate(259.578115, 23.893077)">
                        <mask id="mask-2" fill="white">
                            <use xlink:href="#path-1"></use>
                        </mask>
                        <g id="Clip-8"></g>
                        <path d="M203.895557,107.176348 L137.29833,107.176348 L137.29833,103.599055 L203.895557,103.599055 C215.492597,103.599055 224.929593,94.1540848 224.929593,82.5472465 L224.929593,80.865989 C224.929593,69.2591507 215.492597,59.8141806 203.895557,59.8141806 L197.389043,59.8141806 L197.14982,58.3054501 C194.926453,44.2392225 182.988169,34.0284441 168.763194,34.0284441 C166.309399,34.0284441 163.794039,34.369977 161.289233,35.046001 L159.628744,35.4931627 L159.116877,33.8488752 C158.237381,31.0197854 157.057097,28.2716776 155.607687,25.678492 C154.29196,23.330013 152.738769,21.0871627 150.993848,19.0080369 C142.849712,9.33772554 130.94133,3.79397703 118.320557,3.79397703 C97.1194167,3.79397703 79.3905282,19.0185998 76.1627764,39.9964681 L75.7458951,42.7181686 L73.4310606,41.2288034 C68.4636649,38.0370549 62.7363844,36.3487555 56.8631074,36.3487555 C43.2819239,36.3487555 31.1536685,45.4662764 27.368316,58.5237495 L26.9936505,59.8141806 L24.7562117,59.8141806 C13.1591721,59.8141806 3.72569371,69.2591507 3.72569371,80.865989 L3.72569371,82.5472465 C3.72569371,94.1540848 13.1591721,103.599055 24.7562117,103.599055 L52.076888,103.599055 L52.076888,107.176348 L24.7562117,107.176348 C11.1891002,107.176348 0.149661333,96.1275818 0.149661333,82.5472465 L0.149661333,80.865989 C0.149661333,67.426492 10.9604311,56.46751 24.3358124,56.2404082 C28.9654815,42.3537495 42.1508915,32.7697016 56.8631074,32.7697016 C62.5446541,32.7697016 68.1083484,34.1851267 73.098611,36.8821806 C77.5981146,15.4835579 96.2188124,0.21492314 118.320557,0.21492314 C131.996726,0.21492314 144.902456,6.22343811 153.727323,16.7018094 C155.621758,18.9534621 157.301597,21.3846836 158.726381,23.9303363 C160.026276,26.2524082 161.123888,28.6871507 162.005143,31.1905519 C164.268967,30.6993782 166.536309,30.4493902 168.763194,30.4493902 C184.245848,30.4493902 197.316924,41.2023962 200.409233,56.2368872 L203.895557,56.2368872 C217.462669,56.2368872 228.503866,67.2856537 228.503866,80.865989 L228.503866,82.5472465 C228.503866,96.1275818 217.462669,107.176348 203.895557,107.176348" id="Fill-7" fill="#414042" mask="url(#mask-2)"></path>
                    </g>
                    <path d="M413.719505,71.8527198 L410.143473,71.8527198 C410.143473,62.1243126 418.050146,54.2109593 427.772099,54.2109593 L427.772099,57.7882527 C420.021977,57.7882527 413.719505,64.0978096 413.719505,71.8527198" id="Fill-10" fill="#414042"></path>
                    <path d="M221.887092,118.795189 L221.22747,118.795189 C218.32865,108.793908 209.12384,101.477357 198.195218,101.477357 C193.424829,101.477357 188.992168,102.88574 185.256067,105.288794 C182.830416,89.5307461 169.263304,77.4538599 152.841347,77.4538599 C138.100988,77.4538599 125.62797,87.1752251 121.474988,100.561908 C119.603419,100.05665 117.64566,99.7644108 115.615783,99.7644108 C104.365265,99.7644108 95.0654698,108.014016 93.3627647,118.795189 L89.6882288,118.795189 C80.4271317,118.795189 72.8476317,126.379333 72.8476317,135.650016 L72.8476317,136.891153 C72.8476317,146.161836 80.4271317,153.74598 89.6882288,153.74598 L221.887092,153.74598 C231.149948,153.74598 238.727689,146.161836 238.727689,136.891153 L238.727689,135.650016 C238.727689,126.379333 231.149948,118.795189 221.887092,118.795189" id="Fill-12" fill="#E6E7E8"></path>
                    <path d="M206.397929,122.934956 L205.817462,122.934956 C203.259886,114.118477 195.145652,107.668081 185.511649,107.668081 C181.307656,107.668081 177.399174,108.91098 174.106339,111.028836 C171.967404,97.1368958 160.008012,86.4895186 145.529742,86.4895186 C132.536062,86.4895186 121.540598,95.0595305 117.878375,106.860022 C116.230199,106.416381 114.504627,106.15759 112.713972,106.15759 C102.796771,106.15759 94.5981054,113.43189 93.0959255,122.934956 L89.8593788,122.934956 C81.6923752,122.934956 75.0117205,129.621255 75.0117205,137.793399 L75.0117205,138.888417 C75.0117205,147.06056 81.6923752,153.745099 89.8593788,153.745099 L206.397929,153.745099 C214.563174,153.745099 221.243828,147.06056 221.243828,138.888417 L221.243828,137.793399 C221.243828,129.621255 214.563174,122.934956 206.397929,122.934956" id="Fill-14" fill="#FFFFFF"></path>
                    <path d="M173.121479,103.345401 C168.294803,95.9038563 160.134835,91.4621677 151.290619,91.4621677 C146.611699,91.4621677 142.022486,92.7173892 138.019019,95.0940359 L136.675148,92.819497 C141.083184,90.2034251 146.138529,88.8214491 151.290619,88.8214491 C161.031922,88.8214491 170.020375,93.7138204 175.334292,101.90885 L173.121479,103.345401 Z" id="Fill-16" fill="#414042"></path>
                    <path d="M201.727276,155.066339 L201.727276,152.42562 L221.887092,152.42562 C230.444592,152.42562 237.408445,145.455884 237.408445,136.891153 L237.408445,135.650016 C237.408445,127.083525 230.444592,120.113788 221.887092,120.113788 L220.237157,120.113788 L219.960995,119.161369 C217.165955,109.526267 208.2162,102.797716 198.195218,102.797716 C193.862819,102.797716 189.6342,104.044135 185.968459,106.397896 L184.260477,107.496435 L183.952653,105.489489 C181.569218,90.0095964 168.485829,78.7742192 152.841347,78.7742192 C143.525722,78.7742192 134.737794,82.8655725 128.729074,90.0025545 C127.445009,91.5271293 126.298146,93.1837401 125.323664,94.9230934 C124.255955,96.8332132 123.383495,98.861285 122.734427,100.954495 L122.358002,102.167465 L121.131984,101.838255 C119.278006,101.336519 117.420509,101.08477 115.614024,101.08477 C105.116355,101.08477 96.3055597,108.61962 94.6644194,119.001165 L94.4885201,120.113788 L89.6882288,120.113788 C81.1307288,120.113788 74.1668763,127.083525 74.1668763,135.650016 L74.1668763,136.891153 C74.1668763,145.455884 81.1307288,152.42562 89.6882288,152.42562 L163.460387,152.42562 L163.460387,155.066339 L89.6882288,155.066339 C79.6742827,155.066339 71.5283871,146.9118 71.5283871,136.891153 L71.5283871,135.650016 C71.5283871,125.627608 79.6742827,117.473069 89.6882288,117.473069 L92.2616353,117.473069 C94.5430489,106.380291 104.189365,98.4440515 115.614024,98.4440515 C117.256923,98.4440515 118.929725,98.6271413 120.604286,98.9915605 C121.255114,97.1395365 122.06425,95.3420874 123.021142,93.6326623 C124.078297,91.7454287 125.320146,89.9515006 126.711509,88.3001713 C133.223301,80.5681473 142.746488,76.1335006 152.841347,76.1335006 C169.150729,76.1335006 182.89374,87.398806 186.214718,103.190303 C189.898049,101.199201 194.001779,100.156998 198.195218,100.156998 C209.049963,100.156998 218.780711,107.230602 222.198434,117.47659 C232.068142,117.643836 240.046934,125.731477 240.046934,135.650016 L240.046934,136.891153 C240.046934,146.9118 231.899279,155.066339 221.887092,155.066339 L201.727276,155.066339 Z" id="Fill-18" fill="#414042"></path>
                    <path d="M129.043582,111.3672 L126.405093,111.3672 C126.405093,105.643883 121.752557,100.987416 116.034071,100.987416 L116.034071,98.346697 C123.209003,98.346697 129.043582,104.187966 129.043582,111.3672" id="Fill-20" fill="#414042"></path>
                    <polygon id="Fill-22" fill="#FFFFFF" points="191.833117 125.643629 176.273067 140.766144 176.273067 223.776251 249.955516 223.776251 249.955516 125.643629"></polygon>
                    <polygon id="Fill-24" fill="#2DCBB1" points="191.833117 125.643629 176.273067 140.766144 191.833117 140.766144"></polygon>
                    <path d="M193.945843,142.854776 L176.273242,142.854776 C175.545019,142.854776 174.953998,142.263255 174.953998,141.534417 C174.953998,140.805578 175.545019,140.214057 176.273242,140.214057 L191.307354,140.214057 L191.307354,125.644333 C191.307354,124.915495 191.898376,124.323974 192.626599,124.323974 C193.354822,124.323974 193.945843,124.915495 193.945843,125.644333 L193.945843,142.854776 Z" id="Fill-26" fill="#414042"></path>
                    <mask id="mask-4" fill="white">
                        <use xlink:href="#path-3"></use>
                    </mask>
                    <g id="Clip-29"></g>
                    <polygon id="Fill-28" fill="#D1D3D4" mask="url(#mask-4)" points="184.451504 150.774467 241.312705 150.774467 241.312705 146.19194 184.451504 146.19194"></polygon>
                    <polygon id="Fill-30" fill="#D1D3D4" mask="url(#mask-4)" points="184.449745 156.930862 208.992971 156.930862 208.992971 154.638719 184.449745 154.638719"></polygon>
                    <polygon id="Fill-31" fill="#D1D3D4" mask="url(#mask-4)" points="211.342986 156.930862 217.868849 156.930862 217.868849 154.638719 211.342986 154.638719"></polygon>
                    <polygon id="Fill-32" fill="#D1D3D4" mask="url(#mask-4)" points="222.384183 156.930862 241.312705 156.930862 241.312705 154.638719 222.384183 154.638719"></polygon>
                    <polygon id="Fill-33" fill="#D1D3D4" mask="url(#mask-4)" points="184.451504 163.145353 201.098612 163.145353 201.098612 160.85321 184.451504 160.85321"></polygon>
                    <polygon id="Fill-34" fill="#D1D3D4" mask="url(#mask-4)" points="204.474119 163.145353 241.312705 163.145353 241.312705 160.85321 204.474119 160.85321"></polygon>
                    <polygon id="Fill-35" fill="#D1D3D4" mask="url(#mask-4)" points="184.449745 169.359844 219.035061 169.359844 219.035061 167.067701 184.449745 167.067701"></polygon>
                    <polygon id="Fill-36" fill="#D1D3D4" mask="url(#mask-4)" points="222.384183 169.359844 241.312705 169.359844 241.312705 167.067701 222.384183 167.067701"></polygon>
                    <polygon id="Fill-37" fill="#D1D3D4" mask="url(#mask-4)" points="184.449745 175.572575 208.992971 175.572575 208.992971 173.280431 184.449745 173.280431"></polygon>
                    <polygon id="Fill-38" fill="#D1D3D4" mask="url(#mask-4)" points="214.605917 175.572575 241.312705 175.572575 241.312705 173.280431 214.605917 173.280431"></polygon>
                    <polygon id="Fill-39" fill="#D1D3D4" mask="url(#mask-4)" points="184.053971 181.788826 217.870608 181.788826 217.870608 179.496683 184.053971 179.496683"></polygon>
                    <polygon id="Fill-40" fill="#D1D3D4" mask="url(#mask-4)" points="222.384183 181.788826 241.312705 181.788826 241.312705 179.496683 222.384183 179.496683"></polygon>
                    <polygon id="Fill-41" fill="#D1D3D4" mask="url(#mask-4)" points="184.449745 188.003317 208.992971 188.003317 208.992971 185.709413 184.449745 185.709413"></polygon>
                    <polygon id="Fill-42" fill="#D1D3D4" mask="url(#mask-4)" points="211.342986 188.003317 217.868849 188.003317 217.868849 185.709413 211.342986 185.709413"></polygon>
                    <polygon id="Fill-43" fill="#D1D3D4" mask="url(#mask-4)" points="210.171496 188.003317 241.312705 188.003317 241.312705 185.709413 210.171496 185.709413"></polygon>
                    <polygon id="Fill-44" fill="#D1D3D4" mask="url(#mask-4)" points="184.449745 194.216048 208.992971 194.216048 208.992971 191.922144 184.449745 191.922144"></polygon>
                    <polygon id="Fill-45" fill="#D1D3D4" mask="url(#mask-4)" points="211.342986 194.216048 236.551112 194.216048 236.551112 191.922144 211.342986 191.922144"></polygon>
                    <polygon id="Fill-46" fill="#D1D3D4" mask="url(#mask-4)" points="184.451504 200.430539 221.145853 200.430539 221.145853 198.136635 184.451504 198.136635"></polygon>
                    <polygon id="Fill-47" fill="#D1D3D4" mask="url(#mask-4)" points="184.449745 206.64503 208.992971 206.64503 208.992971 204.352886 184.449745 204.352886"></polygon>
                    <polygon id="Fill-48" fill="#D1D3D4" mask="url(#mask-4)" points="184.449745 212.85776 200.96141 212.85776 200.96141 210.563856 184.449745 210.563856"></polygon>
                    <path d="M177.679557,222.368572 L248.549377,222.368572 L248.549377,127.050956 L192.404086,127.050956 L177.679557,141.360129 L177.679557,222.368572 Z M251.363766,225.185339 L174.865169,225.185339 L174.865169,140.171806 L191.2625,124.23595 L251.363766,124.23595 L251.363766,225.185339 Z" id="Fill-49" fill="#414042" mask="url(#mask-4)"></path>
                    <path d="M431.09466,202.989571 C429.316319,202.989571 427.654071,203.464901 426.211696,204.280002 C425.870452,196.241655 419.268952,189.822949 411.1512,189.822949 C410.153851,189.822949 409.181128,189.926817 408.236549,190.113428 C408.345606,189.155727 408.410689,188.182182 408.410689,187.194553 C408.410689,173.508589 397.327276,162.41405 383.652865,162.41405 C370.907204,162.41405 360.413053,172.057954 359.049833,184.453487 C356.328671,182.99229 353.22229,182.159583 349.922419,182.159583 C342.372822,182.159583 335.852236,186.497404 332.6667,192.808721 C331.092401,192.14326 329.361553,191.77532 327.546272,191.77532 C320.327365,191.77532 314.471678,197.597224 314.397801,204.804625 C311.84902,206.602074 310.181495,209.56496 310.181495,212.923954 C310.181495,218.409607 314.622952,222.854817 320.103973,222.854817 C320.66861,222.854817 321.217416,222.798481 321.755668,222.706937 C322.272812,222.798481 322.800509,222.854817 323.34052,222.854817 L428.925822,222.854817 C429.282898,222.854817 429.631178,222.83017 429.975941,222.787919 C430.343571,222.83017 430.716477,222.854817 431.09466,222.854817 C436.575682,222.854817 441.020657,218.409607 441.020657,212.923954 C441.020657,207.436541 436.575682,202.989571 431.09466,202.989571" id="Fill-50" fill="#FFFFFF" mask="url(#mask-4)"></path>
                    <path d="M429.971368,221.369677 L430.133195,221.389042 C430.448055,221.424251 430.76995,221.447138 431.095364,221.447138 C435.791875,221.447138 439.612407,217.623377 439.612407,212.922898 C439.612407,208.222419 435.791875,204.396898 431.095364,204.396898 C429.6354,204.396898 428.184231,204.780683 426.903684,205.506 L424.90195,206.639749 L424.805206,204.340563 C424.456925,196.126168 416.986483,189.823653 408.508137,191.494347 L406.618979,191.865808 L406.838853,189.950407 C406.94967,188.978623 407.004199,188.077257 407.004199,187.195257 C407.004199,174.308551 396.529396,163.823138 383.653569,163.823138 C371.729357,163.823138 361.75235,172.759329 360.448936,184.607353 L360.220267,186.679437 L358.385637,185.693569 C355.794641,184.30279 352.867677,183.56691 349.921364,183.56691 C343.126375,183.56691 336.998044,187.35194 333.923324,193.443198 L333.330544,194.617437 L332.118598,194.106898 C330.672706,193.494251 329.133587,193.182647 327.546976,193.182647 C321.138965,193.182647 315.870781,198.402467 315.805699,204.819413 L315.798663,205.54121 L315.2094,205.956683 C312.942058,207.553437 311.587634,210.158946 311.587634,212.922898 C311.587634,217.623377 315.408166,221.447138 320.104677,221.447138 C320.549702,221.447138 321.012317,221.404886 321.520666,221.318623 L321.759889,221.278132 L321.999112,221.320383 C322.482835,221.406647 322.922583,221.447138 323.341224,221.447138 L428.924767,221.447138 C429.225555,221.447138 429.519306,221.424251 429.80954,221.390802 L429.971368,221.369677 Z M431.095364,224.263904 C430.71894,224.263904 430.347792,224.241018 429.981922,224.204048 C429.6354,224.242778 429.281842,224.263904 428.924767,224.263904 L323.341224,224.263904 C322.829357,224.263904 322.306936,224.221653 321.752853,224.133629 C321.175904,224.221653 320.635893,224.263904 320.104677,224.263904 C313.856735,224.263904 308.775004,219.17612 308.775004,212.922898 C308.775004,209.482922 310.347544,206.229557 313.015936,204.085293 C313.46272,196.458898 319.839069,190.367641 327.546976,190.367641 C329.079058,190.367641 330.575961,190.600024 332.013058,191.06303 C335.728051,184.670731 342.480824,180.751904 349.921364,180.751904 C352.672429,180.751904 355.407663,181.304695 357.937094,182.364503 C360.218508,170.058754 370.948364,161.006371 383.653569,161.006371 C398.080828,161.006371 409.818587,172.754048 409.818587,187.195257 C409.818587,187.616012 409.808033,188.040287 409.785166,188.471605 C418.583648,187.726922 426.043537,193.89212 427.410274,202.201581 C428.594076,201.79315 429.841202,201.581892 431.095364,201.581892 C437.343306,201.581892 442.426796,206.667916 442.426796,212.922898 C442.426796,219.17612 437.343306,224.263904 431.095364,224.263904 L431.095364,224.263904 Z" id="Fill-51" fill="#414042" mask="url(#mask-4)"></path>
                    <path d="M367.896336,196.361896 L365.081947,196.361896 C365.081947,191.876195 362.594731,187.834135 358.593023,185.813105 L359.861256,183.299141 C364.818098,185.802543 367.896336,190.807584 367.896336,196.361896" id="Fill-52" fill="#414042" mask="url(#mask-4)"></path>
                    <path d="M400.968567,196.57685 L398.607998,195.043473 C401.624671,190.385246 406.93507,187.860719 412.447754,188.459281 L412.145207,191.258443 C407.682642,190.783114 403.406531,192.814707 400.968567,196.57685" id="Fill-53" fill="#414042" mask="url(#mask-4)"></path>
                    <path d="M201.139948,202.989571 C199.361606,202.989571 197.699358,203.464901 196.256984,204.280002 C195.915739,196.241655 189.314239,189.822949 181.196487,189.822949 C180.199138,189.822949 179.226415,189.926817 178.281836,190.113428 C178.390894,189.155727 178.455977,188.182182 178.455977,187.194553 C178.455977,173.508589 167.372563,162.41405 153.698153,162.41405 C140.952491,162.41405 130.45834,172.057954 129.095121,184.453487 C126.373959,182.99229 123.267577,182.159583 119.967707,182.159583 C112.41811,182.159583 105.897523,186.497404 102.711987,192.808721 C101.137689,192.14326 99.4068399,191.77532 97.5915594,191.77532 C90.3726529,191.77532 84.5169658,197.597224 84.4430881,204.804625 C81.8943076,206.602074 80.2267824,209.56496 80.2267824,212.923954 C80.2267824,218.409607 84.6682392,222.854817 90.1492608,222.854817 C90.7138975,222.854817 91.2627032,222.798481 91.800955,222.706937 C92.3180989,222.798481 92.8457968,222.854817 93.3858076,222.854817 L198.97111,222.854817 C199.328185,222.854817 199.676466,222.83017 200.021228,222.787919 C200.388858,222.83017 200.761764,222.854817 201.139948,222.854817 C206.620969,222.854817 211.065944,218.409607 211.065944,212.923954 C211.065944,207.436541 206.620969,202.989571 201.139948,202.989571" id="Fill-54" fill="#FFFFFF" mask="url(#mask-4)"></path>
                    <path d="M200.016479,221.369677 L200.178306,221.389042 C200.494925,221.424251 200.815062,221.447138 201.140476,221.447138 C205.836986,221.447138 209.657519,217.623377 209.657519,212.922898 C209.657519,208.222419 205.836986,204.396898 201.140476,204.396898 C199.680512,204.396898 198.231101,204.780683 196.948796,205.506 L194.947062,206.639749 L194.850317,204.340563 C194.502037,196.126168 187.03863,189.823653 178.553249,191.494347 L176.664091,191.865808 L176.883965,189.950407 C176.994781,188.978623 177.04931,188.077257 177.04931,187.195257 C177.04931,174.308551 166.574508,163.823138 153.698681,163.823138 C141.774468,163.823138 131.797461,172.759329 130.494047,184.607353 L130.265378,186.679437 L128.42899,185.693569 C125.839753,184.30279 122.914547,183.56691 119.966476,183.56691 C113.171486,183.56691 107.041396,187.35194 103.968436,193.443198 L103.375655,194.617437 L102.163709,194.106898 C100.716058,193.494251 99.1786986,193.182647 97.5920871,193.182647 C91.1823173,193.182647 85.9158928,198.402467 85.8508101,204.819413 L85.8437741,205.54121 L85.2527525,205.956683 C82.9871698,207.553437 81.6327453,210.158946 81.6327453,212.922898 C81.6327453,217.623377 85.4550367,221.447138 90.1497885,221.447138 C90.5930547,221.447138 91.0574288,221.404886 91.5657777,221.318623 L91.8050007,221.278132 L92.0442237,221.320383 C92.5279468,221.406647 92.965936,221.447138 93.3863353,221.447138 L198.969878,221.447138 C199.270666,221.447138 199.564418,221.424251 199.854652,221.390802 L200.016479,221.369677 Z M201.140476,224.263904 C200.764051,224.263904 200.392904,224.241018 200.025274,224.204048 C199.678753,224.242778 199.328713,224.263904 198.969878,224.263904 L93.3863353,224.263904 C92.8744683,224.263904 92.3520475,224.221653 91.7962058,224.133629 C91.2210151,224.221653 90.6810043,224.263904 90.1497885,224.263904 C83.901846,224.263904 78.8201158,219.17612 78.8201158,212.922898 C78.8201158,209.482922 80.3926554,206.229557 83.0610475,204.085293 C83.5078317,196.458898 89.8841806,190.367641 97.5920871,190.367641 C99.1241698,190.367641 100.621073,190.600024 102.05817,191.06303 C105.773163,184.670731 112.525936,180.751904 119.966476,180.751904 C122.71754,180.751904 125.452774,181.304695 127.980447,182.364503 C130.26186,170.058754 140.993476,161.006371 153.698681,161.006371 C168.12594,161.006371 179.863699,172.754048 179.863699,187.195257 C179.863699,187.616012 179.853145,188.040287 179.830278,188.471605 C188.595339,187.716359 196.088648,193.890359 197.453627,202.201581 C198.639188,201.79315 199.886314,201.581892 201.140476,201.581892 C207.388418,201.581892 212.471907,206.667916 212.471907,212.922898 C212.471907,219.17612 207.388418,224.263904 201.140476,224.263904 L201.140476,224.263904 Z" id="Fill-55" fill="#414042" mask="url(#mask-4)"></path>
                    <path d="M137.941623,196.361896 L135.127235,196.361896 C135.127235,191.876195 132.640019,187.834135 128.63831,185.813105 L129.906544,183.299141 C134.863386,185.802543 137.941623,190.807584 137.941623,196.361896" id="Fill-56" fill="#414042" mask="url(#mask-4)"></path>
                    <path d="M171.014558,196.57685 L168.65223,195.043473 C171.670662,190.385246 176.979302,187.86424 182.493745,188.459281 L182.191198,191.258443 C177.742705,190.783114 173.450763,192.812946 171.014558,196.57685" id="Fill-57" fill="#414042" mask="url(#mask-4)"></path>
                    <polygon id="Fill-58" fill="#231F20" mask="url(#mask-4)" points="127.05205 223.776251 138.518924 223.776251 138.518924 193.069976 127.05205 193.069976"></polygon>
                    <path d="M211.850103,222.855169 L136.837855,222.855169 C135.499262,222.855169 134.417481,221.772474 134.417481,220.43275 L134.417481,174.382139 C134.417481,173.038893 135.499262,171.957959 136.837855,171.957959 L211.850103,171.957959 C213.186938,171.957959 214.268718,173.038893 214.268718,174.382139 L214.268718,220.43275 C214.268718,221.772474 213.186938,222.855169 211.850103,222.855169" id="Fill-59" fill="#FFFFFF" mask="url(#mask-4)"></path>
                    <path d="M136.838735,174.287249 C136.281134,174.287249 135.825555,174.743213 135.825555,175.303046 L135.825555,221.353656 C135.825555,221.913489 136.281134,222.369453 136.838735,222.369453 L211.850983,222.369453 C212.406824,222.369453 212.860645,221.913489 212.860645,221.353656 L212.860645,175.303046 C212.860645,174.743213 212.406824,174.287249 211.850983,174.287249 L136.838735,174.287249 Z M211.850983,225.184459 L136.838735,225.184459 C134.727943,225.184459 133.011166,223.467992 133.011166,221.353656 L133.011166,175.303046 C133.011166,173.190471 134.727943,171.470483 136.838735,171.470483 L211.850983,171.470483 C213.960015,171.470483 215.675033,173.190471 215.675033,175.303046 L215.675033,221.353656 C215.675033,223.467992 213.960015,225.184459 211.850983,225.184459 L211.850983,225.184459 Z" id="Fill-60" fill="#414042" mask="url(#mask-4)"></path>
                    <polygon id="Fill-61" fill="#40C4FF" mask="url(#mask-4)" points="141.445888 216.007257 207.791579 216.007257 207.791579 178.611162 141.445888 178.611162"></polygon>
                    <path d="M142.851324,214.598874 L206.384385,214.598874 L206.384385,180.017784 L142.851324,180.017784 L142.851324,214.598874 Z M140.038694,217.415641 L209.198773,217.415641 L209.198773,177.202778 L140.038694,177.202778 L140.038694,217.415641 Z" id="Fill-62" fill="#414042" mask="url(#mask-4)"></path>
                    <path d="M194.523848,190.222577 C194.523848,192.740062 192.481658,194.787499 189.96278,194.787499 C187.440384,194.787499 185.399953,192.740062 185.399953,190.222577 C185.399953,187.699811 187.440384,185.654134 189.96278,185.654134 C192.481658,185.654134 194.523848,187.699811 194.523848,190.222577" id="Fill-63" fill="#FFFFFF" mask="url(#mask-4)"></path>
                    <polygon id="Fill-64" fill="#FFFFFF" mask="url(#mask-4)" points="143.310421 213.880775 154.228489 200.812739 158.863435 205.583637 168.212482 193.133529 185.399601 213.880775"></polygon>
                    <polygon id="Fill-65" fill="#E6E7E8" mask="url(#mask-4)" points="320.203532 222.855521 339.17427 222.855521 339.17427 196.365593 320.203532 196.365593"></polygon>
                    <path d="M321.608968,221.447138 L337.767076,221.447138 L337.767076,197.773976 L321.608968,197.773976 L321.608968,221.447138 Z M318.794579,224.263904 L340.579705,224.263904 L340.579705,194.95897 L318.794579,194.95897 L318.794579,224.263904 Z" id="Fill-66" fill="#414042" mask="url(#mask-4)"></path>
                    <polygon id="Fill-67" fill="#2DCBB1" mask="url(#mask-4)" points="348.509245 222.855521 367.481741 222.855521 367.481741 180.389246 348.509245 180.389246"></polygon>
                    <path d="M349.916439,221.447138 L366.076306,221.447138 L366.076306,181.797629 L349.916439,181.797629 L349.916439,221.447138 Z M347.10205,224.263904 L368.888935,224.263904 L368.888935,178.980862 L347.10205,178.980862 L347.10205,224.263904 Z" id="Fill-68" fill="#414042" mask="url(#mask-4)"></path>
                    <polygon id="Fill-69" fill="#40C4FF" mask="url(#mask-4)" points="378.023385 222.85376 396.995881 222.85376 396.995881 157.886802 378.023385 157.886802"></polygon>
                    <path d="M379.42882,221.447138 L395.588687,221.447138 L395.588687,159.295186 L379.42882,159.295186 L379.42882,221.447138 Z M376.614432,224.263904 L398.401317,224.263904 L398.401317,156.48018 L376.614432,156.48018 L376.614432,224.263904 Z" id="Fill-70" fill="#414042" mask="url(#mask-4)"></path>
                    <path d="M340.654286,208.819398 C338.058013,208.819398 335.632362,209.513026 333.523329,210.704871 C333.027294,198.965996 323.389772,189.594966 311.535919,189.594966 C310.077714,189.594966 308.659966,189.746368 307.279157,190.017481 C307.440984,188.619661 307.53597,187.200715 307.53597,185.758883 C307.53597,165.777446 291.351477,149.579278 271.388668,149.579278 C252.778524,149.579278 237.457696,163.659589 235.466517,181.755553 C231.494711,179.621853 226.960027,178.407122 222.138628,178.407122 C211.118538,178.407122 201.59711,184.739565 196.944574,193.955673 C194.649088,192.983889 192.123175,192.445182 189.472373,192.445182 C178.934247,192.445182 170.383783,200.944775 170.276484,211.470679 C166.552696,214.093793 164.11825,218.42105 164.11825,223.322224 C164.11825,231.332404 170.603657,237.82329 178.607074,237.82329 C179.428524,237.82329 180.232383,237.740547 181.016894,237.608511 C181.769743,237.742308 182.541941,237.82329 183.331729,237.82329 L337.48634,237.82329 C338.008761,237.82329 338.51711,237.784559 339.020182,237.726463 C339.558434,237.78632 340.103722,237.82329 340.654286,237.82329 C348.655945,237.82329 355.14311,231.332404 355.14311,223.322224 C355.14311,215.312044 348.655945,208.819398 340.654286,208.819398" id="Fill-71" fill="#FFFFFF" mask="url(#mask-4)"></path>
                    <path d="M339.017192,236.30963 L339.17726,236.327235 C339.662742,236.38181 340.15526,236.415259 340.654814,236.415259 C347.866685,236.415259 353.736444,230.542301 353.736444,223.322576 C353.736444,216.101091 347.866685,210.228133 340.654814,210.228133 C338.410339,210.228133 336.185213,210.817893 334.2169,211.930516 L332.215167,213.064265 L332.118422,210.765079 C331.65053,199.682863 322.609307,191.003702 311.536447,191.003702 C310.227756,191.003702 308.887404,191.137498 307.550569,191.39981 L305.659652,191.771271 L305.881285,189.855869 C306.04839,188.419319 306.129303,187.079594 306.129303,185.759235 C306.129303,166.585857 290.542868,150.986253 271.389195,150.986253 C253.646235,150.986253 238.805613,164.28139 236.865444,181.910828 L236.636774,183.982911 L234.800386,182.997043 C230.927084,180.914396 226.548951,179.814097 222.137397,179.814097 C211.973936,179.814097 202.802548,185.475798 198.201023,194.589798 L197.608242,195.765798 L196.396296,195.253498 C194.204591,194.323965 191.873926,193.853917 189.471141,193.853917 C179.761501,193.853917 171.78271,201.76375 171.682447,211.483354 L171.675411,212.206911 L171.086149,212.622384 C167.603343,215.074732 165.524213,219.076301 165.524213,223.322576 C165.524213,230.542301 171.393972,236.415259 178.605843,236.415259 C179.29185,236.415259 180.004242,236.350121 180.781717,236.218085 L181.022699,236.179354 L181.263681,236.219846 C181.993663,236.350121 182.670875,236.415259 183.332256,236.415259 L337.486868,236.415259 C337.95476,236.415259 338.40858,236.380049 338.858882,236.327235 L339.017192,236.30963 Z M340.654814,239.230265 C340.104249,239.230265 339.562479,239.198576 339.024228,239.142241 C338.519397,239.198576 338.009289,239.230265 337.486868,239.230265 L183.332256,239.230265 C182.577649,239.230265 181.816005,239.166887 181.010386,239.034851 C180.167828,239.166887 179.378041,239.230265 178.605843,239.230265 C169.840782,239.230265 162.711584,232.093283 162.711584,223.322576 C162.711584,218.400277 165.007069,213.752612 168.887408,210.745714 C169.374649,199.814899 178.463364,191.037151 189.471141,191.037151 C191.817638,191.037151 194.104328,191.424456 196.287238,192.190265 C201.54135,182.787546 211.331904,176.999091 222.137397,176.999091 C226.34139,176.999091 230.518997,177.902217 234.337771,179.629247 C237.285843,161.557929 252.875796,148.171247 271.389195,148.171247 C292.096059,148.171247 308.941933,165.033115 308.941933,185.759235 C308.941933,186.611307 308.91203,187.466899 308.850465,188.347139 C321.838868,186.820804 333.124566,196.114372 334.749875,208.555678 C336.626721,207.803953 338.633731,207.411366 340.654814,207.411366 C349.419875,207.411366 356.550832,214.550109 356.550832,223.322576 C356.550832,232.093283 349.419875,239.230265 340.654814,239.230265 L340.654814,239.230265 Z" id="Fill-72" fill="#414042" mask="url(#mask-4)"></path>
                    <path d="M247.736899,199.141868 L244.92251,199.141868 C244.92251,192.34994 241.156506,186.226994 235.093258,183.16376 L236.359733,180.649796 C243.378114,184.193641 247.736899,191.279569 247.736899,199.141868" id="Fill-73" fill="#414042" mask="url(#mask-4)"></path>
                    <path d="M296.126439,199.104018 L293.765871,197.570641 C298.038464,190.974126 305.558158,187.396832 313.36105,188.247144 L313.058504,191.046305 C306.314525,190.326269 299.818565,193.403587 296.126439,199.104018" id="Fill-74" fill="#414042" mask="url(#mask-4)"></path>
                    <g id="Group-8" mask="url(#mask-4)">
                        <g transform="translate(163.000000, 14.000000)">
                            <path d="M59.6184659,27.088315 L54.6246853,27.0759916 C54.0389407,24.4757641 53.0187248,22.0533449 51.6361565,19.863309 L55.1664551,16.3265066 C56.4364479,15.0642431 56.4434838,13.0185665 55.182286,11.7510216 L52.5367608,9.10502156 C51.272045,7.8409976 49.2333723,7.83395569 47.9704155,9.09797964 L44.429563,12.638303 C42.2519299,11.252806 39.8245198,10.2317281 37.2317644,9.64372814 L37.2317644,4.64572814 C37.2317644,2.86236287 35.7823543,1.40820719 33.9969766,1.40820719 L30.2608759,1.40820719 C28.4719802,1.40820719 27.0260882,2.86236287 27.0260882,4.64572814 L27.0260882,9.64372814 C24.4720306,10.2176443 22.0885953,11.2175964 19.9338292,12.5696443 L16.4193615,9.01171617 C15.1616817,7.74417126 13.1106961,7.73008743 11.8494982,8.98530898 L9.18814211,11.6172251 C7.92694427,12.8794886 7.91287233,14.9286862 9.1652752,16.1944707 L12.6797428,19.7523988 C11.2936565,21.921309 10.2593687,24.3560515 9.66131117,26.9421952 L4.67280758,26.9228299 C2.88039391,26.915788 1.43274283,28.3611413 1.43274283,30.1480275 L1.40635794,33.8943269 C1.39932197,35.6759317 2.83993707,37.1336084 4.63059175,37.1353689 L9.6067824,37.1600156 C10.189009,39.7620036 11.2057069,42.1897042 12.5812392,44.3691772 L9.02983276,47.9059796 C7.76863492,49.1559198 7.76159894,51.2086383 9.02279679,52.4832251 L11.6472141,55.1292251 C12.9048939,56.400291 14.9611565,56.403812 16.2223543,55.1485904 L19.7632069,51.6223509 C21.9461169,53.0166503 24.364732,54.0412491 26.9680414,54.6415725 L26.9486925,59.634291 C26.9398975,61.4176563 28.3805126,62.8770934 30.1711673,62.8770934 L33.907268,62.8929377 C35.6961637,62.8929377 37.1508507,61.4528659 37.1508507,59.6730216 L37.1666817,54.6697401 C39.7611961,54.0870216 42.1886061,53.0694647 44.3715162,51.6945305 L47.8965378,55.2436563 C49.1542176,56.5059198 51.2052033,56.5112012 52.4787141,55.2471772 L55.1207212,52.6117401 C56.3907141,51.3512371 56.394232,49.300279 55.1242392,48.0344946 L51.6132896,44.4888898 C52.987063,42.3094168 54.0143148,39.8869976 54.6053364,37.2797281 L59.6061529,37.2955725 C61.3844946,37.2955725 62.8251097,35.8519796 62.8374227,34.059812 L62.8374227,30.3205545 C62.8374227,28.5336683 61.3932896,27.088315 59.6184659,27.088315" id="Fill-75" fill="#FFFFFF"></path>
                            <path d="M19.5705971,49.8268383 L20.5204533,50.4342036 C22.5925468,51.7580838 24.8669245,52.7122635 27.2837806,53.2703353 L28.3761151,53.5238443 L28.3567662,59.6397485 C28.3550072,60.1309222 28.5414605,60.5886467 28.886223,60.9354611 C29.2292266,61.2787545 29.6848058,61.4688862 30.1720468,61.4688862 L33.9099065,61.4847305 C34.9213274,61.4829701 35.744536,60.6713892 35.744536,59.6731976 L35.7638849,53.5414491 L36.8597374,53.2967425 C39.2625216,52.7562754 41.5368993,51.8161796 43.6195468,50.5028623 L44.5729209,49.9007784 L48.8947662,54.2509222 C49.5772554,54.9357485 50.7909605,54.9427904 51.4875216,54.2474012 L54.1277698,51.615485 C54.4760504,51.2686707 54.6677806,50.8109461 54.6677806,50.3232934 C54.6677806,49.8374012 54.4760504,49.3779162 54.1312878,49.0328623 L49.8270324,44.684479 L50.423331,43.7373413 C51.7460935,41.6406108 52.6906727,39.3643114 53.2324425,36.9682994 L53.4822194,35.868 L59.6105504,35.8873653 C60.6061403,35.8873653 61.422313,35.0634611 61.4293489,34.0494251 L61.4293489,30.3207305 C61.4293489,29.315497 60.6166943,28.4968743 59.6193453,28.4968743 L53.4998094,28.4827904 L53.2517914,27.386012 C52.7100216,24.986479 51.7672015,22.7084192 50.4461979,20.6152096 L49.8463813,19.6645509 L54.1699856,15.3302515 C54.5235432,14.9816766 54.7152734,14.5221916 54.7170324,14.0345389 C54.7170324,13.5486467 54.5305792,13.0909222 54.1858166,12.7458683 L51.5420504,10.1016287 C50.8525252,9.41152096 49.6546511,9.408 48.9668849,10.0945868 L44.6256907,14.4341677 L43.6740756,13.8268024 C41.6055,12.5099641 39.3328813,11.5645868 36.9213022,11.0170778 L35.8254497,10.7670898 L35.8254497,4.64590419 C35.8254497,3.6371497 35.005759,2.81676647 33.9978561,2.81676647 L30.2617554,2.81676647 C29.2538525,2.81676647 28.4324029,3.6371497 28.4324029,4.64590419 L28.4324029,10.7706108 L27.3330324,11.0170778 C24.9795,11.546982 22.7403022,12.4712335 20.6805216,13.7634251 L19.7253885,14.361988 L15.4193741,10.0030419 C14.7333669,9.31117365 13.5284569,9.30237126 12.8424497,9.98367665 L10.1758166,12.6191138 C9.46694247,13.3285868 9.4599065,14.490503 10.1652626,15.203497 L14.471277,19.5642036 L13.8644245,20.5113413 C12.5434209,22.5816647 11.5882878,24.8526826 11.0324461,27.261018 L10.7791511,28.3560359 L4.6684101,28.3313892 C3.65698923,28.3313892 2.84081657,29.146491 2.84081657,30.1482036 L2.81267269,33.9050659 C2.81091369,34.3856766 2.99912592,34.8451617 3.34212952,35.191976 C3.68689211,35.5370299 4.14423024,35.7271617 4.63147125,35.7271617 L10.7351763,35.7570898 L10.9796763,36.8521078 C11.5179281,39.2604431 12.4589892,41.5367425 13.7711979,43.6176287 L14.3745324,44.5735689 L10.0210252,48.9061078 C9.67802161,49.2458802 9.48980938,49.7018443 9.48805038,50.1877365 C9.48805038,50.6789102 9.67626261,51.1419162 10.0227842,51.490491 L12.6454425,54.136491 C13.3349676,54.8318802 14.5416367,54.8354012 15.2294029,54.1505749 L19.5705971,49.8268383 Z M33.9081475,64.301497 L30.1667698,64.2856527 C28.9319569,64.2856527 27.7675036,63.7997605 26.8915252,62.9212814 C26.0155468,62.0392814 25.5371007,60.8703234 25.5423777,59.6274251 L25.5546907,55.735006 C23.5986907,55.187497 21.7288813,54.4040838 19.9769245,53.3970898 L17.2153058,56.1487186 C15.456313,57.8951138 12.3903885,57.8827904 10.6472266,56.1187904 L8.02456837,53.4745509 C7.15034894,52.5925509 6.6719029,51.4235928 6.67366189,50.1824551 C6.67542089,48.9395569 7.1609029,47.7758802 8.03864031,46.9062036 L10.809054,44.1475329 C9.80994607,42.3888144 9.03774823,40.5191856 8.50477341,38.5632934 L4.62267628,38.5439281 C3.38962233,38.5439281 2.2234101,38.0562754 1.34919067,37.1777964 C0.473212254,36.2975569 -0.00523378914,35.1285988 4.31892758e-05,33.8892216 L0.0264280814,30.1376407 C0.0264280814,27.5937485 2.10555758,25.5146228 4.65961513,25.5146228 L8.57161513,25.5287066 C9.1169029,23.5780958 9.8996547,21.711988 10.9075576,19.9603114 L8.16528779,17.1840359 C6.37463312,15.3742635 6.38694607,12.4307425 8.19167269,10.6209701 L10.8618238,7.98201198 C12.6067446,6.2497006 15.6726691,6.26026347 17.41759,8.02074251 L20.1598597,10.7952575 C21.8871907,9.8199521 23.7147842,9.06822754 25.6180144,8.54360479 L25.6180144,4.64590419 C25.6180144,2.08440719 27.7006619,9.23705556e-14 30.2617554,9.23705556e-14 L33.9978561,9.23705556e-14 C36.5571907,9.23705556e-14 38.6380792,2.08440719 38.6380792,4.64590419 L38.6380792,8.54536527 C40.5958382,9.08407186 42.4621295,9.86220359 44.2123274,10.8639162 L46.9774641,8.10172455 C48.7276619,6.35180838 51.7759964,6.35532934 53.5314712,8.10876647 L56.1769964,10.7565269 C57.0547338,11.6367665 57.5349389,12.8039641 57.5314209,14.0433413 C57.5279029,15.2827186 57.0389029,16.4499162 56.1594065,17.3248743 L53.4083418,20.0817844 C54.4127266,21.8457844 55.1884425,23.7189341 55.7231763,25.6695449 L59.6211043,25.6801078 C62.1681259,25.6801078 64.2437374,27.7627545 64.2437374,30.3207305 L64.2437374,34.059988 C64.2261475,36.625006 62.147018,38.7041317 59.6052734,38.7041317 L55.7020684,38.6918084 C55.1638166,40.6371377 54.3863418,42.5085269 53.3819569,44.2742874 L56.1242266,47.043521 C56.9984461,47.9149581 57.4821691,49.0839162 57.4804101,50.3268144 C57.4804101,51.5697126 56.9931691,52.7351497 56.1119137,53.6118683 L53.4716655,56.2455449 C51.7038777,57.998982 48.6485072,57.9954611 46.9018274,56.238503 L44.1490036,53.467509 C42.3900108,54.4674611 40.5219605,55.2367904 38.5694784,55.771976 L38.5571655,59.678479 C38.5571655,62.2241317 36.472759,64.301497 33.9081475,64.301497 L33.9081475,64.301497 Z" id="Fill-76" fill="#414042"></path>
                            <path d="M49.3832385,32.0912443 C49.3832385,41.6365617 41.6542241,49.3703461 32.1204831,49.3703461 C22.5832241,49.3703461 14.8559687,41.6365617 14.8559687,32.0912443 C14.8559687,22.5476874 22.5832241,14.813903 32.1204831,14.813903 C41.6542241,14.813903 49.3832385,22.5476874 49.3832385,32.0912443" id="Fill-77" fill="#40C4FF"></path>
                            <path d="M16.2629871,32.2459904 L13.4485986,32.2459904 C13.4485986,21.9401461 21.8249223,13.5585054 32.1203072,13.5585054 L32.1203072,16.3735114 C23.376354,16.3735114 16.2629871,23.4946491 16.2629871,32.2459904" id="Fill-78" fill="#414042"></path>
                            <path d="M42.622022,32.0912443 C42.622022,37.8955437 37.9184752,42.6030647 32.1190759,42.6030647 C26.3196766,42.6030647 21.6178889,37.8955437 21.6178889,32.0912443 C21.6178889,26.2869449 26.3196766,21.5776635 32.1190759,21.5776635 C37.9184752,21.5776635 42.622022,26.2869449 42.622022,32.0912443" id="Fill-79" fill="#FFFFFF"></path>
                            <path d="M37.1012471,32.0912443 C37.1012471,34.8428731 34.8690853,37.076921 32.1197795,37.076921 C29.3687148,37.076921 27.1383119,34.8428731 27.1383119,32.0912443 C27.1383119,29.3378551 29.3687148,27.1038072 32.1197795,27.1038072 C34.8690853,27.1038072 37.1012471,29.3378551 37.1012471,32.0912443" id="Fill-80" fill="#2DCBB1"></path>
                        </g>
                    </g>
                    <path d="M134.019069,150.775171 C134.019069,160.110992 126.457159,167.681051 117.12922,167.681051 C107.801281,167.681051 100.239371,160.110992 100.239371,150.775171 C100.239371,141.439351 107.801281,133.869291 117.12922,133.869291 C126.457159,133.869291 134.019069,141.439351 134.019069,150.775171" id="Fill-81" fill="#40C4FF" mask="url(#mask-4)"></path>
                    <path d="M117.129044,135.278202 C108.590893,135.278202 101.64639,142.230334 101.64639,150.775699 C101.64639,159.319304 108.590893,166.271436 117.129044,166.271436 C125.667195,166.271436 132.611699,159.319304 132.611699,150.775699 C132.611699,142.230334 125.667195,135.278202 117.129044,135.278202 M117.129044,169.088202 C107.039462,169.088202 98.8320011,160.873807 98.8320011,150.775699 C98.8320011,140.675831 107.039462,132.461436 117.129044,132.461436 C127.218627,132.461436 135.426087,140.675831 135.426087,150.775699 C135.426087,160.873807 127.218627,169.088202 117.129044,169.088202" id="Fill-82" fill="#414042" mask="url(#mask-4)"></path>
                    <path d="M117.133442,154.504218 C115.071902,154.504218 113.400859,152.835284 113.400859,150.770242 C113.400859,148.708721 115.071902,147.043308 117.133442,147.043308 C119.189704,147.043308 120.858988,148.708721 120.858988,150.770242 C120.858988,152.835284 119.189704,154.504218 117.133442,154.504218 M127.131557,148.930541 L125.316276,148.92702 C125.101679,147.983404 124.728773,147.099643 124.22746,146.303907 L125.511524,145.015236 C125.972381,144.561032 125.977658,143.814589 125.516801,143.351583 L124.554632,142.393883 C124.095535,141.932637 123.351481,141.930877 122.895902,142.38332 L121.604801,143.673751 C120.815014,143.172014 119.928481,142.798793 118.98742,142.585775 L118.98742,140.7672 C118.98742,140.119344 118.459722,139.59296 117.808895,139.59296 L116.452712,139.59296 C115.801884,139.59296 115.275945,140.119344 115.275945,140.7672 L115.275945,142.585775 C114.348956,142.793511 113.476496,143.163212 112.695503,143.650865 L111.418474,142.355152 C110.957618,141.893907 110.213564,141.892146 109.754467,142.349871 L108.787021,143.305811 C108.327924,143.760014 108.324406,144.509978 108.779985,144.974745 L110.058773,146.261655 C109.553942,147.057392 109.177517,147.942913 108.957643,148.883008 L107.144122,148.870685 C106.493294,148.870685 105.967355,149.390026 105.967355,150.046685 L105.956801,151.407535 C105.956801,152.05011 106.475704,152.587056 107.128291,152.587056 L108.940053,152.594098 C109.152891,153.539475 109.52228,154.430278 110.021834,155.220733 L108.728974,156.504122 C108.269877,156.958326 108.268118,157.704769 108.725456,158.169535 L109.680589,159.132517 C110.139686,159.597284 110.887258,159.599044 111.344596,159.139559 L112.633938,157.857931 C113.429003,158.359667 114.308499,158.734649 115.254837,158.952949 L115.246042,160.771523 C115.246042,161.42114 115.770222,161.949284 116.42105,161.949284 L117.778992,161.956326 C118.42806,161.956326 118.957517,161.433463 118.957517,160.782086 L118.962794,158.963511 C119.907373,158.755775 120.792147,158.382553 121.585453,157.882577 L122.867758,159.165966 C123.325096,159.630733 124.070909,159.634254 124.533524,159.171248 L125.492176,158.211787 C125.958309,157.759344 125.958309,157.01114 125.495694,156.551655 L124.216906,155.259463 C124.718219,154.470769 125.091125,153.585248 125.305722,152.643392 L127.124521,152.643392 C127.773589,152.643392 128.297769,152.120529 128.299528,151.469152 L128.299528,150.104781 C128.299528,149.463966 127.775348,148.930541 127.131557,148.930541" id="Fill-83" fill="#FFFFFF" mask="url(#mask-4)"></path>
                    <g id="Group-16" mask="url(#mask-4)">
                        <g transform="translate(244.000000, 39.000000)">
                            <path d="M35.1868921,18.3137353 C35.1868921,27.6495557 27.624982,35.2196156 18.2970432,35.2196156 C8.96910432,35.2196156 1.40719424,27.6495557 1.40719424,18.3137353 C1.40719424,8.97791497 8.96910432,1.40785509 18.2970432,1.40785509 C27.624982,1.40785509 35.1868921,8.97791497 35.1868921,18.3137353" id="Fill-84" fill="#40C4FF"></path>
                            <path d="M18.2970432,2.81676647 C9.75889209,2.81676647 2.81438849,9.7688982 2.81438849,18.3142635 C2.81438849,26.8578683 9.75889209,33.81 18.2970432,33.81 C26.8351942,33.81 33.7796978,26.8578683 33.7796978,18.3142635 C33.7796978,9.7688982 26.8351942,2.81676647 18.2970432,2.81676647 M18.2970432,36.6267665 C8.20746043,36.6267665 8.52651283e-14,28.4123713 8.52651283e-14,18.3142635 C8.52651283e-14,8.21439521 8.20746043,-4.68958206e-13 18.2970432,-4.68958206e-13 C28.3866259,-4.68958206e-13 36.5940863,8.21439521 36.5940863,18.3142635 C36.5940863,28.4123713 28.3866259,36.6267665 18.2970432,36.6267665" id="Fill-85" fill="#414042"></path>
                            <path d="M18.3012647,22.042782 C16.2397252,22.042782 14.568682,20.3738479 14.568682,18.308806 C14.568682,16.247285 16.2397252,14.5818719 18.3012647,14.5818719 C20.3575273,14.5818719 22.0268115,16.247285 22.0268115,18.308806 C22.0268115,20.3738479 20.3575273,22.042782 18.3012647,22.042782 M28.2993799,16.4691054 L26.4840993,16.4655844 C26.2695022,15.5219677 25.8965957,14.6382072 25.3952827,13.8424707 L26.6793475,12.5538 C27.1402036,12.0995964 27.1454806,11.3531533 26.6846245,10.8901473 L25.7224554,9.93244671 C25.2633583,9.4712012 24.5193043,9.46944072 24.0637252,9.92188383 L22.7726245,11.212315 C21.9828367,10.7105784 21.0963043,10.3373569 20.1552432,10.1243389 L20.1552432,8.30576407 C20.1552432,7.65790778 19.6275453,7.13152455 18.976718,7.13152455 L17.6205345,7.13152455 C16.9697072,7.13152455 16.4437683,7.65790778 16.4437683,8.30576407 L16.4437683,10.1243389 C15.5167791,10.3320754 14.6443187,10.701776 13.8633259,11.1894287 L12.5862971,9.89371617 C12.125441,9.43247066 11.3813871,9.43071018 10.9222899,9.88843473 L9.95484388,10.8443749 C9.49574676,11.2985784 9.49222878,12.0485425 9.94780791,12.513309 L11.2265957,13.8002192 C10.7217647,14.5959557 10.3453403,15.4814766 10.1254662,16.4215725 L8.3119446,16.4092491 C7.66111727,16.4092491 7.13517842,16.9285904 7.13517842,17.5852491 L7.12462446,18.9460994 C7.12462446,19.5886743 7.64352734,20.1256204 8.29611367,20.1256204 L10.1078763,20.1326623 C10.3207144,21.0780395 10.6901029,21.9688419 11.1896568,22.759297 L9.89679712,24.0426862 C9.4377,24.4968898 9.43594101,25.2433329 9.89327914,25.7080994 L10.8484122,26.6710814 C11.3075094,27.1358479 12.0550813,27.1376084 12.5124194,26.6781234 L13.8017612,25.3964946 C14.5968259,25.8982311 15.4763223,26.2732132 16.4226604,26.4915126 L16.4138655,28.3100874 C16.4138655,28.9597042 16.9380453,29.4878479 17.5888727,29.4878479 L18.9468151,29.4948898 C19.5958835,29.4948898 20.1253403,28.9720275 20.1253403,28.3206503 L20.1306173,26.5020754 C21.0751964,26.2943389 21.9599698,25.9211174 22.7532755,25.4211413 L24.0355813,26.7045305 C24.4929194,27.169297 25.2387324,27.172818 25.7013475,26.709812 L26.6599986,25.7503509 C27.1261317,25.2979078 27.1261317,24.5497042 26.6635165,24.0902192 L25.3847288,22.7980275 C25.8860417,22.0093329 26.2589482,21.123812 26.4735453,20.1819557 L28.2923439,20.1819557 C28.9414122,20.1819557 29.4655921,19.6590934 29.4673511,19.0077162 L29.4673511,17.6433449 C29.4673511,17.0025305 28.9431712,16.4691054 28.2993799,16.4691054" id="Fill-86" fill="#FFFFFF"></path>
                        </g>
                    </g>
                    <g id="Group-15" mask="url(#mask-4)">
                        <g transform="translate(359.000000, 80.000000)">
                            <path d="M30.9677719,16.2025689 C30.9677719,24.3729521 24.350441,30.9958743 16.1887144,30.9958743 C8.02346978,30.9958743 1.40613885,24.3729521 1.40613885,16.2025689 C1.40613885,8.03218563 8.02346978,1.40926347 16.1887144,1.40926347 C24.350441,1.40926347 30.9677719,8.03218563 30.9677719,16.2025689" id="Fill-87" fill="#2DCBB1"></path>
                            <path d="M16.1880108,2.81676647 C8.81431295,2.81676647 2.8126295,8.82176048 2.8126295,16.2034491 C2.8126295,23.5833772 8.81431295,29.5883713 16.1880108,29.5883713 C23.5617086,29.5883713 29.5616331,23.5833772 29.5616331,16.2034491 C29.5616331,8.82176048 23.5617086,2.81676647 16.1880108,2.81676647 M16.1880108,32.4051377 C7.2611223,32.4051377 3.12638804e-13,25.1378802 3.12638804e-13,16.2034491 C3.12638804e-13,7.26725749 7.2611223,-7.10542736e-14 16.1880108,-7.10542736e-14 C25.1131403,-7.10542736e-14 32.3742626,7.26725749 32.3742626,16.2034491 C32.3742626,25.1378802 25.1131403,32.4051377 16.1880108,32.4051377" id="Fill-88" fill="#414042"></path>
                            <path d="M16.1915288,19.4656168 C14.3868022,19.4656168 12.9250791,18.0044192 12.9250791,16.1981677 C12.9250791,14.3936766 14.3868022,12.936 16.1915288,12.936 C17.9909784,12.936 19.4527014,14.3936766 19.4527014,16.1981677 C19.4527014,18.0044192 17.9909784,19.4656168 16.1915288,19.4656168 M24.939,14.5873293 L23.3506295,14.5855689 C23.1641763,13.7599042 22.8370036,12.9852934 22.3990144,12.2899042 L23.5230108,11.1614371 C23.9240612,10.7653293 23.9310971,10.1121916 23.5265288,9.70552096 L22.6839712,8.86753293 C22.2829209,8.46438323 21.6338525,8.46262275 21.2345612,8.86049102 L20.1052878,9.9871976 C19.4122446,9.54883832 18.6382878,9.2231497 17.8133201,9.03653892 L17.8133201,7.44506587 C17.8133201,6.87819162 17.352464,6.41694611 16.7825504,6.41694611 L15.5934712,6.41694611 C15.0253165,6.41694611 14.5662194,6.87819162 14.5662194,7.44506587 L14.5662194,9.03653892 C13.7535647,9.21786826 12.9919209,9.54003593 12.3076727,9.96783234 L11.1889532,8.83232335 C10.7879029,8.42917365 10.1353165,8.42741317 9.73250719,8.8288024 L8.88819065,9.66679042 C8.48538129,10.0646587 8.48186331,10.7195569 8.88115468,11.1262275 L9.9998741,12.2529341 C9.55836691,12.9483234 9.22767626,13.7229341 9.03594604,14.5468383 L7.44757554,14.5362754 C6.87942086,14.534515 6.41856475,14.990479 6.41856475,15.5643952 L6.40976978,16.7562395 C6.40976978,17.3195928 6.86358993,17.7896407 7.4335036,17.7896407 L9.0218741,17.7949222 C9.20656835,18.6223473 9.53022302,19.400479 9.96645324,20.0923473 L8.83542086,21.2155329 C8.4343705,21.6134012 8.43261151,22.2682994 8.83190288,22.6732096 L9.66918345,23.516479 C10.0702338,23.9213892 10.7263381,23.9231497 11.1256295,23.5217605 L12.2549029,22.4003353 C12.947946,22.8404551 13.7183849,23.1696647 14.5451115,23.3597964 L14.5398345,24.949509 C14.5398345,25.5181437 14.9971727,25.9811497 15.5670863,25.9811497 L16.7544065,25.9881916 C17.3260791,25.9881916 17.7869353,25.5287066 17.7869353,24.9600719 L17.7904532,23.3685988 C18.6189388,23.185509 19.3928957,22.8598204 20.0876978,22.4232216 L21.2099353,23.5464072 C21.6092266,23.9530778 22.2618129,23.9565988 22.6681403,23.5499281 L23.5054209,22.7119401 C23.9135072,22.3140719 23.9152662,21.6591737 23.5089388,21.2577844 L22.3884604,20.1257964 C22.8282086,19.4356886 23.1553813,18.6610778 23.3400755,17.8371737 L24.935482,17.8389341 C25.5018777,17.8389341 25.9609748,17.3776886 25.9627338,16.8108144 L25.9627338,15.6154491 C25.9627338,15.0538563 25.5053957,14.5873293 24.939,14.5873293" id="Fill-89" fill="#FFFFFF"></path>
                        </g>
                    </g>
                    <g id="Group-14" mask="url(#mask-4)">
                        <g transform="translate(320.000000, 130.000000)">
                            <path d="M33.7730137,17.6054946 C33.7730137,26.5504886 26.5294813,33.8019018 17.5902799,33.8019018 C8.65107842,33.8019018 1.40754604,26.5504886 1.40754604,17.6054946 C1.40754604,8.6605006 8.65107842,1.40908743 17.5902799,1.40908743 C26.5294813,1.40908743 33.7730137,8.6605006 33.7730137,17.6054946" id="Fill-90" fill="#40C4FF"></path>
                            <path d="M17.5899281,2.81676647 C9.44227338,2.81676647 2.81438849,9.45201198 2.81438849,17.6047904 C2.81438849,25.7593293 9.44227338,32.3945749 17.5899281,32.3945749 C25.7375827,32.3945749 32.3654676,25.7593293 32.3654676,17.6047904 C32.3654676,9.45201198 25.7375827,2.81676647 17.5899281,2.81676647 M17.5899281,35.2095808 C7.89084173,35.2095808 -3.41060513e-13,27.3120719 -3.41060513e-13,17.6047904 C-3.41060513e-13,7.89926946 7.89084173,-1.13686838e-13 17.5899281,-1.13686838e-13 C27.2890144,-1.13686838e-13 35.1798561,7.89926946 35.1798561,17.6047904 C35.1798561,27.3120719 27.2890144,35.2095808 17.5899281,35.2095808" id="Fill-91" fill="#414042"></path>
                            <path d="M17.593446,21.1780347 C15.6180971,21.1780347 14.0191727,19.5777593 14.0191727,17.6007413 C14.0191727,15.6254838 15.6180971,14.0287293 17.593446,14.0287293 C19.565277,14.0287293 21.1642014,15.6254838 21.1642014,17.6007413 C21.1642014,19.5777593 19.565277,21.1780347 17.593446,21.1780347 M27.1711619,15.8385018 L25.435036,15.8349808 C25.2274748,14.9300946 24.8703993,14.0850647 24.3901942,13.3210168 L25.6214892,12.086921 C26.0612374,11.6520826 26.0665144,10.9373281 25.6250072,10.4936874 L24.705054,9.57471737 C24.2653058,9.13283713 23.5529137,9.13107665 23.1166835,9.56591497 L21.8783525,10.8000108 C21.1202266,10.3211605 20.2723921,9.96378323 19.3717878,9.76132814 L19.3717878,8.01669341 C19.3717878,7.39700479 18.8651978,6.89174731 18.2425144,6.89174731 L16.9408597,6.89174731 C16.3164173,6.89174731 15.8151043,7.39700479 15.8151043,8.01669341 L15.8151043,9.76132814 C14.925054,9.9585018 14.0912914,10.3123581 13.3419604,10.7806455 L12.1194604,9.53598683 C11.6779532,9.09586707 10.9638022,9.09410659 10.524054,9.53246587 L9.59706475,10.447915 C9.15731655,10.8845138 9.15379856,11.6045497 9.59178777,12.0464299 L10.8142878,13.2822862 C10.3323237,14.0410527 9.97173022,14.8913641 9.76065108,15.7927293 L8.02452518,15.7821665 C7.39832374,15.780406 6.8952518,16.2786216 6.8952518,16.9071126 L6.88645683,18.2116275 C6.88645683,18.8295557 7.38249281,19.3418551 8.00869424,19.3418551 L9.74306115,19.348897 C9.94710432,20.2537832 10.3024209,21.1058551 10.7808669,21.866382 L9.54253597,23.0934359 C9.10278777,23.5282743 9.09926978,24.2465497 9.53901799,24.6901904 L10.4519353,25.6126814 C10.8916835,26.0563222 11.6093525,26.0580826 12.0491007,25.6179629 L13.2839137,24.390909 C14.0437986,24.8732802 14.8881151,25.232418 15.7939964,25.441915 L15.7869604,27.1812683 C15.7869604,27.8044778 16.2865144,28.3114958 16.9109568,28.3114958 L18.2126115,28.3202982 C18.835295,28.3202982 19.3401259,27.8168012 19.3401259,27.1935916 L19.3436439,25.4507174 C20.2512842,25.2500228 21.0991187,24.8926455 21.8590036,24.4155557 L23.0867806,25.6461305 C23.5247698,26.0897713 24.2406799,26.0950527 24.683946,25.6496515 L25.6038993,24.7324419 C26.0471655,24.2958431 26.0506835,23.5793281 25.6056583,23.1392084 L24.3796403,21.8998311 C24.8616043,21.1445856 25.2204388,20.2977952 25.422723,19.3946695 L27.1658849,19.3964299 C27.7885683,19.3964299 28.2898813,18.8929329 28.2933993,18.2732443 L28.2933993,16.9634479 C28.2933993,16.3490407 27.7903273,15.8385018 27.1711619,15.8385018" id="Fill-92" fill="#FFFFFF"></path>
                        </g>
                    </g>
                    <path d="M93.3671622,65.8493102 C93.3671622,76.5547832 84.6953277,85.2357054 73.9971335,85.2357054 C63.2989392,85.2357054 54.6288637,76.5547832 54.6288637,65.8493102 C54.6288637,55.1438371 63.2989392,46.462915 73.9971335,46.462915 C84.6953277,46.462915 93.3671622,55.1438371 93.3671622,65.8493102" id="Fill-93" fill="#2DCBB1" mask="url(#mask-4)"></path>
                    <path d="M73.9976612,47.8712982 C64.0927727,47.8712982 56.0348266,55.9360527 56.0348266,65.8493102 C56.0348266,75.7625677 64.0927727,83.8273222 73.9976612,83.8273222 C83.9025496,83.8273222 91.9604957,75.7625677 91.9604957,65.8493102 C91.9604957,55.9360527 83.9025496,47.8712982 73.9976612,47.8712982 M73.9976612,86.6423281 C62.541341,86.6423281 53.2204381,77.3153102 53.2204381,65.8493102 C53.2204381,54.3833102 62.541341,45.0545317 73.9976612,45.0545317 C85.4539813,45.0545317 94.7748842,54.3833102 94.7748842,65.8493102 C94.7748842,77.3153102 85.4539813,86.6423281 73.9976612,86.6423281" id="Fill-94" fill="#414042" mask="url(#mask-4)"></path>
                    <path d="M74.0029381,70.1249856 C71.6370928,70.1249856 69.7215496,68.2095844 69.7215496,65.8417401 C69.7215496,63.4791772 71.6370928,61.5690575 74.0029381,61.5690575 C76.3617475,61.5690575 78.2772906,63.4791772 78.2772906,65.8417401 C78.2772906,68.2095844 76.3617475,70.1249856 74.0029381,70.1249856 M85.4662942,63.7326862 L83.3871647,63.7291653 C83.1373878,62.6482311 82.7117115,61.6341952 82.1382799,60.7222671 L83.6105568,59.2434647 C84.1400137,58.7223629 84.1452906,57.8667701 83.6158338,57.3351054 L82.5129453,56.2383269 C81.9870065,55.7101832 81.133895,55.7084228 80.6114741,56.2277641 L79.1304022,57.704806 C78.2210029,57.1308898 77.209582,56.7030934 76.1295604,56.4601473 L76.1295604,54.3722192 C76.1295604,53.6310575 75.5244669,53.0254527 74.776895,53.0254527 L73.2219453,53.0254527 C72.4743734,53.0254527 71.8727978,53.6310575 71.8727978,54.3722192 L71.8727978,56.4601473 C70.8086072,56.6960515 69.8077403,57.1185665 68.9124129,57.6801593 L67.4489309,56.190794 C66.9212331,55.6644108 66.0663626,55.6608898 65.5404237,56.1855126 L64.4304993,57.2840515 C63.9045604,57.8069138 63.8992835,58.6642671 64.4252223,59.1959317 L65.8904633,60.6747341 C65.3117547,61.5849018 64.8790424,62.6006982 64.6275065,63.6798719 L62.546618,63.665788 C61.800805,63.6640275 61.1957115,64.2608299 61.1957115,65.014315 L61.1869165,66.5740994 C61.1869165,67.3135006 61.7814561,67.9296683 62.5307871,67.9296683 L64.6046396,67.9349497 C64.8491396,69.0194048 65.2748158,70.0404826 65.8464885,70.9488898 L64.3654165,72.4206503 C63.8394777,72.9399916 63.8342007,73.7973449 64.3618986,74.3307701 L65.4559921,75.4345904 C65.9819309,75.9644946 66.8403194,75.9680156 67.3644993,75.4398719 L68.8420532,73.9716323 C69.7549705,74.5490695 70.7628734,74.9786263 71.8481719,75.2268539 L71.839377,77.3130216 C71.839377,78.0559437 72.4374345,78.6650695 73.1850065,78.6650695 L74.7434741,78.6721114 C75.4875281,78.6721114 76.0926216,78.071788 76.0926216,77.3271054 L76.0978986,75.2374168 C77.1831971,75.0015126 78.199895,74.5719557 79.1057763,73.9998 L80.5762942,75.473321 C81.1022331,76.0049856 81.9588626,76.0102671 82.4883194,75.4786024 L83.5876899,74.378303 C84.1206647,73.8572012 84.1224237,72.9998479 83.5912079,72.4734647 L82.1259669,70.9911413 C82.6993986,70.0880156 83.1285928,69.0704587 83.3730928,67.991285 L85.4610173,67.994806 C86.2050712,67.994806 86.8031288,67.3909617 86.8084058,66.646279 L86.8084058,65.0812132 C86.8084058,64.3435725 86.2050712,63.7326862 85.4662942,63.7326862" id="Fill-95" fill="#FFFFFF" mask="url(#mask-4)"></path>
                    <g id="Group-98" mask="url(#mask-4)">
                        <g transform="translate(86.000000, 85.000000)">
                            <path d="M0.0863309353,0.0179640719 L21.0863309,45.0179641" id="Fill-96" stroke="none" fill="#414042" fill-rule="evenodd"></path>
                            <path d="M0.0863309353,2.01796407 L21.0863309,47.0179641" id="Stroke-97" stroke="#231F20" stroke-width="2" fill="none" stroke-dasharray="7"></path>
                        </g>
                    </g>
                    <g id="Group-98-Copy" mask="url(#mask-4)">
                        <g transform="translate(355.000000, 124.500000) scale(-1, 1) translate(-355.000000, -124.500000) translate(348.000000, 113.000000)">
                            <path d="M0,0 L14,23" id="Fill-96" stroke="none" fill="#414042" fill-rule="evenodd"></path>
                            <path d="M0,0 L14,23" id="Stroke-97" stroke="#231F20" stroke-width="2" fill="none" stroke-dasharray="7"></path>
                        </g>
                    </g>
                    <g id="Group-107" mask="url(#mask-4)" fill="#414042">
                        <g transform="translate(251.470962, 37.216430)" id="Fill-105">
                            <path d="M0.529038337,0.783569847 L7.52903834,168.78357"></path>
                        </g>
                    </g>
                    <g id="Group-110" mask="url(#mask-4)">
                        <g transform="translate(134.165468, 65.976909)">
                            <path d="M0.834532374,76.0230908 L121.834532,0.0230908047" id="Fill-108" stroke="none" fill="#414042" fill-rule="evenodd"></path>
                            <path d="M0.834532374,76.0230908 L115.834532,0.0230908047" id="Stroke-109" stroke="#231F20" stroke-width="2" fill="none" stroke-dasharray="7"></path>
                        </g>
                    </g>
                </g>
                <g id="Group-119" transform="translate(10.000000, 10.000000)">
                    <g id="Group-114">
                        <mask id="mask-6" fill="white">
                            <use xlink:href="#path-5"></use>
                        </mask>
                        <g id="Clip-113"></g>
                        <path d="M114.689814,61.331485 L95.2552125,61.331485 L95.2552125,59.006485 L114.689814,59.006485 C121.123689,59.006485 126.357687,53.758185 126.357687,47.308635 L126.357687,46.361585 C126.357687,39.912035 121.123689,34.665285 114.689814,34.665285 L113.315213,34.665285 L113.072454,33.826735 C110.964939,26.541735 104.207901,21.451535 96.6421834,21.451535 C93.3703546,21.451535 90.1773837,22.393935 87.4111731,24.174885 L85.9113272,25.142085 L85.6391902,23.375085 C83.8362827,11.640035 73.9342074,3.122785 62.093156,3.122785 C51.5803187,3.122785 42.4235276,9.879235 39.3078683,19.935635 L38.9769745,21.003585 L37.8992502,20.713735 C36.5060943,20.337085 35.1036611,20.146435 33.7383375,20.146435 C25.8169865,20.146435 19.1697313,25.841135 17.9311988,33.684135 L17.7765755,34.665285 L13.988305,34.665285 C7.55288373,34.665285 2.31888545,39.912035 2.31888545,46.361585 L2.31888545,47.308635 C2.31888545,53.758185 7.55288373,59.006485 13.988305,59.006485 L31.975632,59.006485 L31.975632,61.331485 L13.988305,61.331485 C6.27414914,61.331485 -0.000463869863,55.040035 -0.000463869863,47.308635 L-0.000463869863,46.361585 C-0.000463869863,38.630185 6.27414914,32.340285 13.988305,32.340285 L15.8221372,32.340285 C17.620406,23.869535 25.003668,17.821435 33.7383375,17.821435 C34.9583152,17.821435 36.1968478,17.953185 37.4369265,18.213585 C41.1463392,7.752635 50.9231697,0.797785 62.093156,0.797785 C74.5217759,0.797785 85.0052348,9.350685 87.623007,21.363185 C90.40468,19.896885 93.4909608,19.126535 96.6421834,19.126535 C104.940815,19.126535 112.38438,24.518985 115.039262,32.344935 C122.589517,32.530935 128.677036,38.747985 128.677036,46.361585 L128.677036,47.308635 C128.677036,55.040035 122.402423,61.331485 114.689814,61.331485" id="Fill-112" fill="#414042" mask="url(#mask-6)"></path>
                    </g>
                    <path d="M78.0324279,22 C74.3428393,16.5271084 68.1022887,13.2590361 61.3409103,13.2590361 C57.7654971,13.2590361 54.258902,14.1837349 51.1980606,15.9307229 L50,13.9864458 C53.4237005,12.0331325 57.3447683,11 61.3409103,11 C68.9015171,11 75.8756061,14.6521084 80,20.7710843 L78.0324279,22 Z" id="Fill-115" fill="#414042"></path>
                    <path d="M44,28 L41.6954985,28 C41.6954985,23.7566446 38.2433554,20.3045015 34,20.3045015 L34,18 C39.5139038,18 44,22.4860962 44,28" id="Fill-117" fill="#414042"></path>
                </g>
            </g>
        </g>
    </g>
</svg>