
<svg width="77px" height="78px" viewBox="0 0 77 78" version="1.1" xmlns="http://www.w3.org/2000/svg" xmlns:xlink="http://www.w3.org/1999/xlink">
    <g id="Page-1" stroke="none" stroke-width="1" fill="none" fill-rule="evenodd">
        <g id="PactFlow-Homepage-Option-A-v2.0" transform="translate(-494.000000, -1665.000000)" fill="#000000" fill-rule="nonzero">
            <g id="Group-7" transform="translate(494.000000, 1665.000000)">
                <path d="M39,54 C31.8461538,54 26,48.1538462 26,41 C26,33.8461538 31.8461538,28 39,28 C46.1538462,28 52,33.7692308 52,40.9230769 C52,48.0769231 46.1538462,54 39,54 Z M39,32 C34.0769231,32 30.0769231,36 30.0769231,40.9230769 C30.0769231,45.8461538 34.0769231,49.8461538 39,49.8461538 C43.9230769,49.8461538 47.9230769,45.8461538 47.9230769,40.9230769 C47.9230769,36 43.9230769,32 39,32 Z" id="Shape"></path>
                <path d="M39,20 C33.496124,20 29,15.5212355 29,10.03861 C29,4.55598456 33.496124,0 39,0 C44.503876,0 49,4.47876448 49,9.96138996 C49,15.4440154 44.503876,20 39,20 Z M39,4.16988417 C35.744186,4.16988417 33.1085271,6.7953668 33.1085271,10.03861 C33.1085271,13.2818533 35.744186,15.9073359 39,15.9073359 C42.255814,15.9073359 44.8914729,13.2818533 44.8914729,10.03861 C44.8914729,6.7953668 42.255814,4.16988417 39,4.16988417 Z" id="Shape"></path>
                <path d="M66.9500186,64 C65.4026879,64 63.8553572,63.6133156 62.4627596,62.9172836 L62.4627596,62.9172836 C60.064397,61.7572304 58.2849667,59.6691345 57.5113014,57.1943543 C56.6602695,54.6422371 56.8923691,51.9354462 58.0528671,49.5380028 C59.2907317,47.1405594 61.3022616,45.3618111 63.8553572,44.5111054 C66.4084528,43.6603997 69.1162816,43.8924103 71.5146441,45.0524636 C76.4661023,47.5272439 78.4002657,53.5595208 75.9245366,58.5090813 C74.686672,60.9065247 72.6751421,62.685273 70.1220465,63.5359787 C69.038915,63.8453262 68.0331501,64 66.9500186,64 Z M66.9500186,48.1459389 C66.3310863,48.1459389 65.712154,48.2232758 65.0932218,48.4552865 C63.6232576,48.9193078 62.3853931,50.0020241 61.6890942,51.394088 C60.9927954,52.7861519 60.8380624,54.4102265 61.3796281,55.8796273 C61.8438273,57.349028 62.9269588,58.5864182 64.3195564,59.2824501 L64.3195564,59.2824501 C65.712154,59.9784821 67.3368513,60.1331558 68.8068154,59.5917977 C70.2767796,59.1277764 71.5146441,58.04506 72.2109429,56.6529961 C73.6809071,53.7915314 72.5204091,50.2340348 69.5804808,48.764634 C68.8068154,48.3779496 67.878417,48.1459389 66.9500186,48.1459389 Z" id="Shape"></path>
                <path d="M10.0273851,64 C8.48005443,64 6.93272374,63.6148051 5.54012612,62.9214542 L5.54012612,62.9214542 C3.14176355,61.6888304 1.36233325,59.6858168 0.511301375,57.1435303 C-0.339730505,54.6012438 -0.107630902,51.9048793 1.05286712,49.5166707 C2.29073167,47.1284622 4.30226157,45.3565655 6.85535721,44.5091367 C9.40845285,43.6617078 12.1162816,43.8928248 14.5146441,45.0484096 C19.4661023,47.5136571 21.4002657,53.522698 18.9245366,58.453193 C17.686672,60.8414016 15.6751421,62.6132983 13.1220465,63.4607271 C12.1162816,63.845922 11.0331501,64 10.0273851,64 Z M10.0273851,48.207008 C9.40845285,48.207008 8.78952057,48.284047 8.17058829,48.5151639 C6.70062414,48.9773978 5.46275959,50.0559436 4.76646077,51.4426454 C4.07016196,52.8293471 3.91542889,54.4471658 4.45699464,55.9109065 C4.92119384,57.3746472 6.00432533,58.607271 7.39692295,59.3006219 L7.39692295,59.3006219 C8.78952057,59.9939728 10.4142178,60.1480507 11.884182,59.6087778 C13.3541461,59.1465439 14.5920107,58.0679981 15.2883095,56.6812964 C16.7582736,53.8308539 15.5977756,50.2870606 12.6578473,48.8233199 C11.8068154,48.4381249 10.878417,48.207008 10.0273851,48.207008 Z" id="Shape"></path>
                <path d="M60.8882367,65.0204082 C59.6237793,64.3673469 58.5173791,63.4693878 57.4900075,62.4897959 C52.432178,66.8979592 45.8728054,69.5918367 38.6812041,69.5918367 C31.252517,69.5918367 24.4560587,66.7346939 19.3192006,62 C18.3708576,63.1428571 17.2644574,64.0408163 16,64.7755102 C21.9271439,70.4897959 29.9090311,74 38.6812041,74 C47.2162914,74 55.0401214,70.6530612 60.9672653,65.1836735 C61.0462939,65.1020408 60.9672653,65.1020408 60.8882367,65.0204082 Z" id="Path" stroke="#000000" stroke-width="7"></path>
                <path d="M52.7835821,10 C52.7835821,11.4152334 52.5485075,12.8304668 52,14.2457002 C61.9514925,18.8845209 68.8470149,29.027027 68.8470149,40.6633907 C68.8470149,40.7420147 68.8470149,40.8206388 68.8470149,40.8992629 C70.2574627,41.0565111 71.6679104,41.4496314 73,42 C73,41.5282555 73,41.1351351 73,40.6633907 C73,26.9041769 64.6156716,15.1105651 52.7835821,10 Z" id="Path" stroke="#000000" stroke-width="7"></path>
                <path d="M27,14.1641791 C26.9216418,14.0099502 26.9216418,13.9328358 26.8432836,13.778607 C26.4514925,12.5447761 26.2164179,11.2338308 26.2164179,10 C14.3059701,14.9353234 6,26.579602 6,40.0746269 C6,40.3830846 6,40.6915423 6,41 C6.07835821,41 6.23507463,40.9228856 6.31343284,40.9228856 C7.56716418,40.5373134 8.89925373,40.3059701 10.1529851,40.3059701 C10.1529851,40.2288557 10.1529851,40.2288557 10.1529851,40.1517413 C10.1529851,28.5845771 17.1268657,18.6368159 27,14.1641791 Z" id="Path" stroke="#000000" stroke-width="7"></path>
            </g>
        </g>
    </g>
</svg>